<?xml version="1.0" encoding="UTF-8" ?>
<!DOCTYPE svg PUBLIC "-//W3C//DTD SVG 1.1//EN" "http://www.w3.org/Graphics/SVG/1.1/DTD/svg11.dtd">
<svg width="2516pt" height="397pt" viewBox="0 0 2516 397" version="1.1" xmlns="http://www.w3.org/2000/svg">
<path fill="#fefefe" d=" M 0.00 0.00 L 2438.92 0.00 C 2439.02 2.17 2439.14 4.34 2439.28 6.50 C 2442.53 6.54 2445.80 6.59 2449.08 6.69 C 2449.37 17.26 2449.02 27.83 2449.23 38.40 C 2451.67 38.39 2454.13 38.36 2456.60 38.27 C 2456.75 27.75 2456.43 17.24 2456.73 6.72 C 2459.98 6.60 2463.24 6.53 2466.52 6.47 C 2466.62 4.31 2466.72 2.16 2466.89 0.00 L 2476.71 0.00 C 2476.78 12.78 2476.58 25.57 2476.80 38.35 C 2479.28 38.39 2481.78 38.40 2484.31 38.40 C 2484.57 31.57 2484.30 24.74 2484.48 17.91 C 2487.67 22.43 2490.29 27.33 2493.34 31.95 C 2495.11 31.95 2496.90 31.95 2498.71 31.95 C 2501.87 27.36 2504.48 22.42 2507.65 17.84 C 2507.86 24.69 2507.59 31.54 2507.83 38.39 C 2510.28 38.40 2512.75 38.40 2515.25 38.38 C 2515.38 25.59 2515.45 12.79 2515.19 0.00 L 2516.00 0.00 L 2516.00 397.00 L 2496.07 397.00 C 2434.74 265.83 2373.71 134.52 2312.48 3.30 C 2303.02 2.22 2293.48 3.04 2284.00 2.79 C 2272.76 3.03 2261.48 2.28 2250.27 3.22 C 2221.51 64.22 2193.26 125.48 2164.66 186.58 C 2132.05 256.74 2099.20 326.79 2066.69 397.00 L 1998.74 397.00 C 1973.28 366.55 1948.03 335.92 1922.62 305.42 C 1917.96 299.63 1912.92 294.14 1908.54 288.13 C 1933.00 270.80 1952.77 246.76 1964.07 218.93 C 1980.23 179.65 1979.51 133.76 1961.90 95.08 C 1943.06 53.05 1904.78 20.31 1860.24 8.46 C 1838.72 2.32 1816.15 2.71 1794.00 2.79 C 1765.00 2.79 1736.00 2.79 1707.00 2.80 C 1701.09 2.81 1695.18 2.57 1689.31 3.14 C 1689.16 134.43 1689.30 265.71 1689.24 397.00 L 1562.43 397.00 C 1562.35 375.61 1562.59 354.21 1562.32 332.82 C 1501.52 332.56 1440.72 332.85 1379.92 332.68 C 1379.53 308.79 1379.87 284.89 1379.76 261.00 C 1379.87 251.46 1379.50 241.92 1379.96 232.39 C 1440.74 232.25 1501.53 232.51 1562.32 232.26 C 1562.49 210.78 1562.56 189.28 1562.28 167.80 C 1501.50 167.54 1440.72 167.82 1379.94 167.67 C 1379.51 143.79 1379.88 119.89 1379.76 96.00 C 1379.89 86.51 1379.44 77.00 1380.01 67.52 C 1440.78 67.42 1501.56 67.69 1562.33 67.38 C 1562.48 45.92 1562.56 24.45 1562.29 2.99 C 1537.20 2.53 1512.09 2.92 1487.00 2.79 C 1431.33 2.79 1375.65 2.81 1319.98 2.78 C 1317.98 2.81 1316.00 2.90 1314.03 3.01 C 1313.54 26.33 1313.96 49.67 1313.82 73.00 C 1313.82 181.00 1313.82 289.00 1313.83 397.00 L 1085.28 397.00 C 1109.83 394.65 1134.56 389.54 1156.65 378.23 C 1153.00 356.42 1149.30 334.62 1145.40 312.85 C 1139.69 315.17 1134.36 318.29 1128.67 320.66 C 1113.80 327.08 1097.87 331.10 1081.72 332.43 C 1048.80 334.52 1014.48 326.24 988.12 305.85 C 966.15 289.06 950.90 264.26 944.41 237.50 C 941.41 225.58 939.89 213.29 940.22 200.99 C 939.22 166.76 950.83 131.63 974.58 106.56 C 986.95 93.59 1002.30 83.50 1019.03 77.08 C 1037.08 69.96 1056.65 67.19 1075.99 67.53 C 1104.49 68.12 1132.23 78.98 1154.75 96.23 C 1165.75 104.38 1175.16 114.37 1184.19 124.60 C 1193.09 107.50 1201.12 89.96 1209.72 72.71 C 1211.27 69.62 1212.72 66.47 1214.05 63.27 C 1183.39 31.53 1142.03 9.73 1098.02 4.63 C 1066.40 1.07 1033.80 3.81 1003.77 14.63 C 971.41 25.84 942.23 46.02 920.36 72.37 C 898.66 98.31 884.40 130.19 878.64 163.47 C 871.58 203.87 876.27 246.46 893.03 283.97 C 905.58 311.99 924.96 336.95 949.21 355.80 C 974.87 375.93 1005.80 389.16 1037.98 394.28 C 1045.17 395.51 1052.43 396.13 1059.67 397.00 L 575.88 397.00 C 576.00 370.09 575.63 343.17 576.06 316.27 C 599.04 316.21 622.02 316.26 645.00 316.26 C 657.30 315.84 669.68 315.35 681.71 312.51 C 716.52 305.17 748.33 285.26 770.60 257.58 C 790.88 232.61 803.09 201.19 804.80 169.05 C 807.29 131.53 795.59 93.24 772.33 63.66 C 751.62 36.96 722.16 17.15 689.49 8.39 C 674.71 4.15 659.29 3.16 644.00 2.78 C 606.00 2.81 568.00 2.78 530.00 2.80 C 523.81 2.83 517.60 2.54 511.42 3.16 C 511.31 134.44 511.44 265.72 511.36 397.00 L 430.05 397.00 C 368.76 265.81 307.75 134.49 246.49 3.28 C 238.37 2.29 230.16 2.98 222.00 2.79 C 209.44 3.02 196.85 2.32 184.31 3.17 C 150.58 74.92 117.30 146.90 83.70 218.71 C 56.12 278.18 28.16 337.46 0.75 397.00 L 0.00 397.00 L 0.00 0.00 Z" />
<path fill="#646464" d=" M 2438.92 0.00 L 2466.89 0.00 C 2466.72 2.16 2466.62 4.31 2466.52 6.47 C 2463.24 6.53 2459.98 6.60 2456.73 6.72 C 2456.43 17.24 2456.75 27.75 2456.60 38.27 C 2454.13 38.36 2451.67 38.39 2449.23 38.40 C 2449.02 27.83 2449.37 17.26 2449.08 6.69 C 2445.80 6.59 2442.53 6.54 2439.28 6.50 C 2439.14 4.34 2439.02 2.17 2438.92 0.00 Z" />
<path fill="#646464" d=" M 2476.71 0.00 L 2482.32 0.00 C 2486.98 7.34 2491.03 15.08 2496.07 22.18 C 2501.18 15.09 2505.00 7.16 2510.02 0.00 L 2515.19 0.00 C 2515.45 12.79 2515.38 25.59 2515.25 38.38 C 2512.75 38.40 2510.28 38.40 2507.83 38.39 C 2507.59 31.54 2507.86 24.69 2507.65 17.84 C 2504.48 22.42 2501.87 27.36 2498.71 31.95 C 2496.90 31.95 2495.11 31.95 2493.34 31.95 C 2490.29 27.33 2487.67 22.43 2484.48 17.91 C 2484.30 24.74 2484.57 31.57 2484.31 38.40 C 2481.78 38.40 2479.28 38.39 2476.80 38.35 C 2476.58 25.57 2476.78 12.78 2476.71 0.00 Z" />
<path fill="#fefefe" d=" M 2482.32 0.00 L 2510.02 0.00 C 2505.00 7.16 2501.18 15.09 2496.07 22.18 C 2491.03 15.08 2486.98 7.34 2482.32 0.00 Z" />
<path fill="#646464" d=" M 184.31 3.17 C 196.85 2.32 209.44 3.02 222.00 2.79 C 230.16 2.98 238.37 2.29 246.49 3.28 C 307.75 134.49 368.76 265.81 430.05 397.00 L 358.26 397.00 C 349.89 379.17 341.86 361.19 333.59 343.32 C 330.68 337.19 328.21 330.85 324.90 324.92 C 319.47 326.67 314.21 328.91 308.81 330.77 C 248.40 351.93 180.82 351.73 120.50 330.32 C 115.52 328.53 110.66 326.38 105.53 325.03 C 99.28 336.32 94.38 348.27 88.93 359.96 C 83.19 372.27 77.71 384.72 71.90 397.00 L 0.75 397.00 C 28.16 337.46 56.12 278.18 83.70 218.71 C 117.30 146.90 150.58 74.92 184.31 3.17 Z" />
<path fill="#646464" d=" M 511.42 3.16 C 517.60 2.54 523.81 2.83 530.00 2.80 C 568.00 2.78 606.00 2.81 644.00 2.78 C 659.29 3.16 674.71 4.15 689.49 8.39 C 722.16 17.15 751.62 36.96 772.33 63.66 C 795.59 93.24 807.29 131.53 804.80 169.05 C 803.09 201.19 790.88 232.61 770.60 257.58 C 748.33 285.26 716.52 305.17 681.71 312.51 C 669.68 315.35 657.30 315.84 645.00 316.26 C 622.02 316.26 599.04 316.21 576.06 316.27 C 575.63 343.17 576.00 370.09 575.88 397.00 L 511.36 397.00 C 511.44 265.72 511.31 134.44 511.42 3.16 Z" />
<path fill="#646464" d=" M 1003.77 14.63 C 1033.80 3.81 1066.40 1.07 1098.02 4.63 C 1142.03 9.73 1183.39 31.53 1214.05 63.27 C 1212.72 66.47 1211.27 69.62 1209.72 72.71 C 1201.12 89.96 1193.09 107.50 1184.19 124.60 C 1175.16 114.37 1165.75 104.38 1154.75 96.23 C 1132.23 78.98 1104.49 68.12 1075.99 67.53 C 1056.65 67.19 1037.08 69.96 1019.03 77.08 C 1002.30 83.50 986.95 93.59 974.58 106.56 C 950.83 131.63 939.22 166.76 940.22 200.99 C 939.89 213.29 941.41 225.58 944.41 237.50 C 950.90 264.26 966.15 289.06 988.12 305.85 C 1014.48 326.24 1048.80 334.52 1081.72 332.43 C 1097.87 331.10 1113.80 327.08 1128.67 320.66 C 1134.36 318.29 1139.69 315.17 1145.40 312.85 C 1149.30 334.62 1153.00 356.42 1156.65 378.23 C 1134.56 389.54 1109.83 394.65 1085.28 397.00 L 1059.67 397.00 C 1052.43 396.13 1045.17 395.51 1037.98 394.28 C 1005.80 389.16 974.87 375.93 949.21 355.80 C 924.96 336.95 905.58 311.99 893.03 283.97 C 876.27 246.46 871.58 203.87 878.64 163.47 C 884.40 130.19 898.66 98.31 920.36 72.37 C 942.23 46.02 971.41 25.84 1003.77 14.63 Z" />
<path fill="#646464" d=" M 1314.03 3.01 C 1316.00 2.90 1317.98 2.81 1319.98 2.78 C 1375.65 2.81 1431.33 2.79 1487.00 2.79 C 1512.09 2.92 1537.20 2.53 1562.29 2.99 C 1562.56 24.45 1562.48 45.92 1562.33 67.38 C 1501.56 67.69 1440.78 67.42 1380.01 67.52 C 1379.44 77.00 1379.89 86.51 1379.76 96.00 C 1379.88 119.89 1379.51 143.79 1379.94 167.67 C 1440.72 167.82 1501.50 167.54 1562.28 167.80 C 1562.56 189.28 1562.49 210.78 1562.32 232.26 C 1501.53 232.51 1440.74 232.25 1379.96 232.39 C 1379.50 241.92 1379.87 251.46 1379.76 261.00 C 1379.87 284.89 1379.53 308.79 1379.92 332.68 C 1440.72 332.85 1501.52 332.56 1562.32 332.82 C 1562.59 354.21 1562.35 375.61 1562.43 397.00 L 1313.83 397.00 C 1313.82 289.00 1313.82 181.00 1313.82 73.00 C 1313.96 49.67 1313.54 26.33 1314.03 3.01 Z" />
<path fill="#646464" d=" M 1689.31 3.14 C 1695.18 2.57 1701.09 2.81 1707.00 2.80 C 1736.00 2.79 1765.00 2.79 1794.00 2.79 C 1816.15 2.71 1838.72 2.32 1860.24 8.46 C 1904.78 20.31 1943.06 53.05 1961.90 95.08 C 1979.51 133.76 1980.23 179.65 1964.07 218.93 C 1952.77 246.76 1933.00 270.80 1908.54 288.13 C 1912.92 294.14 1917.96 299.63 1922.62 305.42 C 1948.03 335.92 1973.28 366.55 1998.74 397.00 L 1905.81 397.00 C 1884.20 370.70 1862.27 344.65 1840.64 318.38 C 1839.19 316.66 1837.51 314.71 1835.02 315.31 C 1808.44 317.07 1781.78 315.87 1755.17 316.30 C 1754.44 325.84 1754.98 335.43 1754.83 345.00 C 1754.82 362.33 1754.82 379.67 1754.83 397.00 L 1689.24 397.00 C 1689.30 265.71 1689.16 134.43 1689.31 3.14 Z" />
<path fill="#646464" d=" M 2250.27 3.22 C 2261.48 2.28 2272.76 3.03 2284.00 2.79 C 2293.48 3.04 2303.02 2.22 2312.48 3.30 C 2373.71 134.52 2434.74 265.83 2496.07 397.00 L 2424.68 397.00 C 2414.59 375.21 2404.36 353.48 2394.31 331.67 C 2393.22 329.40 2392.06 327.16 2390.88 324.95 C 2376.86 329.96 2362.92 335.37 2348.33 338.53 C 2297.66 350.90 2243.66 348.82 2194.03 332.89 C 2186.28 330.54 2178.85 327.30 2171.18 324.73 C 2159.68 348.64 2149.10 372.99 2137.82 397.00 L 2066.69 397.00 C 2099.20 326.79 2132.05 256.74 2164.66 186.58 C 2193.26 125.48 2221.51 64.22 2250.27 3.22 Z" />
<path fill="#fefefe" d=" M 576.07 71.77 C 599.05 71.56 622.03 71.77 645.00 71.67 C 658.98 71.58 673.09 74.13 685.73 80.22 C 701.59 87.63 715.14 99.91 724.03 115.00 C 735.58 134.27 739.06 158.14 733.77 179.96 C 726.63 211.48 700.32 237.54 668.86 244.76 C 655.84 248.11 642.30 247.06 629.00 247.22 C 611.32 247.16 593.63 247.34 575.95 247.14 C 575.77 195.09 575.93 143.05 575.88 91.00 C 575.94 84.59 575.68 78.18 576.07 71.77 Z" />
<path fill="#fefefe" d=" M 1755.20 71.85 C 1769.13 71.47 1783.07 71.80 1797.00 71.69 C 1809.26 71.86 1821.62 71.00 1833.77 73.10 C 1868.97 78.73 1899.05 107.89 1905.18 143.09 C 1909.26 164.62 1905.18 187.77 1893.24 206.23 C 1879.90 227.46 1857.17 242.48 1832.34 246.17 C 1821.30 247.86 1810.11 247.03 1799.00 247.22 C 1784.35 247.13 1769.70 247.41 1755.05 247.08 C 1754.52 222.40 1754.98 197.69 1754.83 173.00 C 1754.82 144.67 1754.82 116.33 1754.83 88.00 C 1754.86 82.62 1754.57 77.21 1755.20 71.85 Z" />
<path fill="#fefefe" d=" M 163.79 199.75 C 181.02 162.91 198.05 125.98 215.37 89.19 C 241.79 146.10 268.49 202.88 294.75 259.86 C 244.51 280.20 186.20 280.53 136.05 259.75 C 144.97 239.62 154.61 219.78 163.79 199.75 Z" />
<path fill="#fefefe" d=" M 2275.84 100.77 C 2277.81 97.20 2278.65 92.86 2281.62 89.93 C 2302.98 135.47 2324.09 181.12 2345.38 226.68 C 2350.31 237.83 2356.03 248.64 2360.57 259.96 C 2310.27 280.31 2252.23 280.24 2201.93 259.92 C 2226.27 206.74 2251.26 153.84 2275.84 100.77 Z" />
<path fill="#fefefe" d=" M 1755.17 316.30 C 1781.78 315.87 1808.44 317.07 1835.02 315.31 C 1837.51 314.71 1839.19 316.66 1840.64 318.38 C 1862.27 344.65 1884.20 370.70 1905.81 397.00 L 1754.83 397.00 C 1754.82 379.67 1754.82 362.33 1754.83 345.00 C 1754.98 335.43 1754.44 325.84 1755.17 316.30 Z" />
<path fill="#fefefe" d=" M 105.53 325.03 C 110.66 326.38 115.52 328.53 120.50 330.32 C 180.82 351.73 248.40 351.93 308.81 330.77 C 314.21 328.91 319.47 326.67 324.90 324.92 C 328.21 330.85 330.68 337.19 333.59 343.32 C 341.86 361.19 349.89 379.17 358.26 397.00 L 71.90 397.00 C 77.71 384.72 83.19 372.27 88.93 359.96 C 94.38 348.27 99.28 336.32 105.53 325.03 Z" />
<path fill="#fefefe" d=" M 2171.18 324.73 C 2178.85 327.30 2186.28 330.54 2194.03 332.89 C 2243.66 348.82 2297.66 350.90 2348.33 338.53 C 2362.92 335.37 2376.86 329.96 2390.88 324.95 C 2392.06 327.16 2393.22 329.40 2394.31 331.67 C 2404.36 353.48 2414.59 375.21 2424.68 397.00 L 2137.82 397.00 C 2149.10 372.99 2159.68 348.64 2171.18 324.73 Z" />
</svg>
