<?xml version="1.0" encoding="UTF-8" standalone="no"?>
<svg
   xmlns:dc="http://purl.org/dc/elements/1.1/"
   xmlns:cc="http://creativecommons.org/ns#"
   xmlns:rdf="http://www.w3.org/1999/02/22-rdf-syntax-ns#"
   xmlns:svg="http://www.w3.org/2000/svg"
   xmlns="http://www.w3.org/2000/svg"
   viewBox="0 0 453.54266 188.976"
   height="188.976"
   width="453.54266"
   xml:space="preserve"
   version="1.1"
   id="svg2"><metadata
     id="metadata8"><rdf:RDF><cc:Work
         rdf:about=""><dc:format>image/svg+xml</dc:format><dc:type
           rdf:resource="http://purl.org/dc/dcmitype/StillImage" /></cc:Work></rdf:RDF></metadata><defs
     id="defs6"><clipPath
       id="clipPath16"
       clipPathUnits="userSpaceOnUse"><path
         id="path18"
         d="m 0,141.732 340.157,0 L 340.157,0 0,0 0,141.732 Z" /></clipPath></defs><g
     transform="matrix(1.3333333,0,0,-1.3333333,0,188.976)"
     id="g10"><g
       id="g12"><g
         clip-path="url(#clipPath16)"
         id="g14"><g
           transform="translate(123.409,60.8727)"
           id="g20"><path
             id="path22"
             style="fill:#393536;fill-opacity:1;fill-rule:nonzero;stroke:none"
             d="m 0,0 c -0.534,-0.086 -1.123,-0.161 -1.768,-0.223 -0.645,-0.062 -1.309,-0.118 -1.991,-0.168 -0.682,-0.049 -1.321,-0.074 -1.916,-0.074 -1.786,0 -3.405,0.193 -4.856,0.577 -1.451,0.384 -2.692,1.054 -3.721,2.009 -1.03,0.955 -1.824,2.239 -2.382,3.852 -0.558,1.612 -0.837,3.659 -0.837,6.14 l 0,3.684 c 0,2.48 0.279,4.527 0.837,6.14 0.558,1.612 1.352,2.89 2.382,3.833 1.029,0.942 2.27,1.606 3.721,1.99 1.451,0.385 3.07,0.577 4.856,0.577 0.595,0 1.234,-0.025 1.916,-0.074 0.682,-0.05 1.346,-0.112 1.991,-0.186 0.645,-0.075 1.234,-0.156 1.768,-0.242 0.533,-0.087 0.961,-0.168 1.284,-0.242 l 0,-4.131 c -0.918,0.075 -1.979,0.149 -3.182,0.224 -1.204,0.074 -2.351,0.111 -3.442,0.111 -1.166,0 -2.183,-0.118 -3.052,-0.353 -0.868,-0.236 -1.587,-0.658 -2.158,-1.265 -0.571,-0.609 -0.999,-1.428 -1.283,-2.456 -0.286,-1.03 -0.429,-2.339 -0.429,-3.926 l 0,-3.684 c 0,-1.588 0.143,-2.903 0.429,-3.945 0.284,-1.042 0.712,-1.867 1.283,-2.475 0.571,-0.608 1.29,-1.029 2.158,-1.265 0.869,-0.236 1.886,-0.353 3.052,-0.353 1.091,0 2.238,0.037 3.442,0.112 1.203,0.074 2.264,0.148 3.182,0.223 l 0,-4.168 C 0.961,0.167 0.533,0.087 0,0" /></g><path
           id="path24"
           style="fill:#393536;fill-opacity:1;fill-rule:nonzero;stroke:none"
           d="m 128.291,89.917 4.912,0 0,-28.914 -4.912,0 0,28.914 z" /><g
           transform="translate(151.1766,61.0031)"
           id="g26"><path
             id="path28"
             style="fill:#393536;fill-opacity:1;fill-rule:nonzero;stroke:none"
             d="M 0,0 0,1.674 C -1.266,1.005 -2.488,0.465 -3.666,0.056 c -1.178,-0.41 -2.376,-0.614 -3.591,-0.614 -1.364,0 -2.462,0.223 -3.293,0.67 -0.831,0.446 -1.47,1.047 -1.916,1.805 -0.447,0.756 -0.739,1.624 -0.875,2.604 -0.137,0.98 -0.204,2.016 -0.204,3.107 l 0,13.322 4.874,0 0,-13.322 c 0,-0.744 0.044,-1.377 0.13,-1.898 0.087,-0.521 0.243,-0.936 0.466,-1.246 0.223,-0.311 0.527,-0.54 0.911,-0.689 0.385,-0.148 0.887,-0.223 1.508,-0.223 0.719,0 1.531,0.131 2.437,0.391 0.905,0.261 1.916,0.601 3.032,1.023 l 0,15.964 4.913,0 L 4.726,0 0,0 Z" /></g><g
           transform="translate(175.4754,66.8083)"
           id="g30"><path
             id="path32"
             style="fill:#393536;fill-opacity:1;fill-rule:nonzero;stroke:none"
             d="m 0,0 c 0,-1.985 -0.683,-3.535 -2.047,-4.651 -1.365,-1.117 -3.511,-1.675 -6.437,-1.675 -0.72,0 -1.458,0.031 -2.215,0.093 -0.757,0.062 -1.457,0.13 -2.102,0.205 -0.645,0.074 -1.222,0.161 -1.73,0.26 -0.509,0.099 -0.875,0.186 -1.098,0.261 l 0,3.497 c 0.273,-0.025 0.657,-0.062 1.153,-0.111 0.497,-0.05 1.061,-0.106 1.693,-0.168 0.633,-0.062 1.303,-0.111 2.01,-0.149 0.707,-0.037 1.396,-0.055 2.065,-0.055 1.513,0 2.537,0.18 3.07,0.539 0.534,0.36 0.8,0.912 0.8,1.656 0,0.372 -0.05,0.682 -0.148,0.93 -0.1,0.248 -0.286,0.478 -0.559,0.689 -0.273,0.21 -0.651,0.428 -1.135,0.651 -0.484,0.223 -1.11,0.484 -1.879,0.781 l -1.6,0.633 c -1.985,0.769 -3.442,1.656 -4.372,2.661 -0.931,1.005 -1.396,2.313 -1.396,3.926 0,2.108 0.694,3.584 2.084,4.428 1.389,0.843 3.485,1.265 6.289,1.265 0.595,0 1.221,-0.025 1.879,-0.074 0.657,-0.05 1.29,-0.118 1.898,-0.205 0.608,-0.087 1.153,-0.18 1.637,-0.279 0.484,-0.099 0.862,-0.186 1.135,-0.26 l 0,-3.424 c -1.191,0.124 -2.338,0.217 -3.442,0.279 -1.104,0.062 -2.115,0.093 -3.033,0.093 -1.265,0 -2.183,-0.099 -2.753,-0.297 -0.571,-0.199 -0.856,-0.67 -0.856,-1.415 0,-0.347 0.049,-0.632 0.149,-0.855 0.098,-0.224 0.278,-0.435 0.539,-0.633 0.26,-0.199 0.601,-0.391 1.024,-0.577 0.421,-0.186 0.954,-0.403 1.6,-0.651 l 1.674,-0.67 C -4.986,6.251 -4.038,5.811 -3.256,5.377 -2.475,4.943 -1.849,4.471 -1.377,3.963 -0.906,3.454 -0.558,2.884 -0.335,2.251 -0.112,1.619 0,0.868 0,0" /></g><g
           transform="translate(190.7137,60.8727)"
           id="g34"><path
             id="path36"
             style="fill:#393536;fill-opacity:1;fill-rule:nonzero;stroke:none"
             d="m 0,0 c -0.286,-0.062 -0.614,-0.124 -0.986,-0.186 -0.372,-0.062 -0.782,-0.117 -1.228,-0.168 -0.447,-0.049 -0.906,-0.074 -1.377,-0.074 -1.042,0 -1.923,0.106 -2.642,0.317 -0.72,0.211 -1.315,0.558 -1.786,1.042 -0.472,0.483 -0.813,1.11 -1.023,1.879 -0.212,0.768 -0.317,1.699 -0.317,2.791 l 0,11.535 -3.907,0.335 0,3.61 3.907,0 0,5.321 4.912,0 0,-5.321 5.098,0 0,-3.945 -5.098,0 0,-11.461 c 0,-0.497 0.019,-0.893 0.056,-1.191 0.037,-0.297 0.118,-0.527 0.242,-0.688 0.124,-0.162 0.316,-0.274 0.577,-0.335 0.26,-0.063 0.614,-0.093 1.06,-0.093 0.546,0 1.135,0.012 1.768,0.037 0.632,0.025 1.098,0.062 1.395,0.112 l 0,-3.35 C 0.502,0.118 0.285,0.062 0,0" /></g><g
           transform="translate(208.0169,73.4689)"
           id="g38"><path
             id="path40"
             style="fill:#393536;fill-opacity:1;fill-rule:nonzero;stroke:none"
             d="M 0,0 C 0,0.596 -0.043,1.197 -0.13,1.805 -0.218,2.413 -0.422,2.958 -0.744,3.442 -1.067,3.926 -1.526,4.317 -2.121,4.615 -2.717,4.912 -3.523,5.061 -4.54,5.061 -5.533,5.061 -6.326,4.906 -6.921,4.596 -7.517,4.286 -7.976,3.889 -8.298,3.405 -8.621,2.921 -8.832,2.382 -8.931,1.787 -9.03,1.191 -9.08,0.596 -9.08,0 l 0,-0.334 9.08,0 L 0,0 Z m -9.117,-3.535 0,-0.372 c 0,-0.769 0.05,-1.464 0.149,-2.084 0.099,-0.62 0.335,-1.148 0.707,-1.581 0.372,-0.435 0.93,-0.77 1.675,-1.005 0.744,-0.236 1.76,-0.354 3.051,-0.354 1.116,0 2.307,0.05 3.572,0.149 1.265,0.099 2.592,0.211 3.982,0.335 l 0,-3.684 c -0.794,-0.199 -1.849,-0.396 -3.163,-0.595 -1.315,-0.199 -2.854,-0.298 -4.614,-0.298 -1.886,0 -3.48,0.192 -4.782,0.577 -1.303,0.384 -2.357,0.986 -3.163,1.804 -0.807,0.819 -1.39,1.88 -1.749,3.182 -0.36,1.303 -0.54,2.871 -0.54,4.708 l 0,1.302 c 0,6.971 3.15,10.456 9.452,10.456 1.736,0 3.206,-0.266 4.41,-0.799 C 1.073,7.672 2.046,6.922 2.791,5.954 3.535,4.987 4.075,3.833 4.41,2.494 4.745,1.154 4.912,-0.31 4.912,-1.897 l 0,-1.638 -14.029,0 z" /></g><g
           transform="translate(226.8006,77.8786)"
           id="g42"><path
             id="path44"
             style="fill:#393536;fill-opacity:1;fill-rule:nonzero;stroke:none"
             d="m 0,0 c -0.646,-0.062 -1.271,-0.148 -1.879,-0.26 -0.608,-0.112 -1.179,-0.249 -1.712,-0.409 -0.534,-0.162 -0.999,-0.33 -1.395,-0.503 l 0,-15.704 -4.875,0 0,20.951 4.652,0 0,-1.712 c 0.991,0.868 2.102,1.457 3.33,1.768 1.228,0.309 2.499,0.465 3.814,0.465 l 0,-4.503 C 1.29,0.093 0.645,0.062 0,0" /></g><g
           transform="translate(249.4779,61.0031)"
           id="g46"><path
             id="path48"
             style="fill:#ee4335;fill-opacity:1;fill-rule:nonzero;stroke:none"
             d="m 0,0 0,13.062 -13.843,0 0,-13.062 -3.424,0 0,27.648 3.424,0 0,-11.498 13.843,0 0,11.498 3.423,0 L 3.423,0 0,0 Z" /></g><g
           transform="translate(275.1541,76.781)"
           id="g50"><path
             id="path52"
             style="fill:#ee4335;fill-opacity:1;fill-rule:nonzero;stroke:none"
             d="m 0,0 c 0,1.687 -0.18,3.12 -0.54,4.298 -0.359,1.178 -0.856,2.134 -1.488,2.866 -0.633,0.731 -1.39,1.265 -2.27,1.6 -0.881,0.335 -1.855,0.502 -2.921,0.502 -1.067,0 -2.041,-0.167 -2.922,-0.502 -0.88,-0.335 -1.637,-0.869 -2.269,-1.6 C -13.043,6.432 -13.54,5.476 -13.899,4.298 -14.259,3.12 -14.438,1.687 -14.438,0 l 0,-3.944 c 0,-1.688 0.179,-3.12 0.539,-4.298 0.359,-1.179 0.856,-2.14 1.489,-2.884 0.632,-0.745 1.389,-1.284 2.269,-1.619 0.881,-0.335 1.855,-0.503 2.922,-0.503 1.066,0 2.04,0.168 2.921,0.503 0.88,0.335 1.637,0.874 2.27,1.619 0.632,0.744 1.129,1.705 1.488,2.884 0.36,1.178 0.54,2.61 0.54,4.298 L 0,0 Z m 3.46,-3.944 c 0,-3.623 -0.775,-6.482 -2.325,-8.578 -1.551,-2.097 -3.777,-3.317 -6.68,-3.665 l 0,-2.047 c 0,-0.372 0.031,-0.676 0.093,-0.912 0.062,-0.235 0.18,-0.421 0.354,-0.558 0.173,-0.136 0.421,-0.229 0.744,-0.279 0.322,-0.049 0.756,-0.074 1.303,-0.074 l 3.162,0 0,-2.344 c -0.273,-0.05 -0.818,-0.124 -1.637,-0.224 -0.818,-0.099 -1.65,-0.149 -2.493,-0.149 -0.72,0 -1.383,0.056 -1.991,0.168 -0.608,0.111 -1.123,0.335 -1.544,0.669 -0.422,0.335 -0.751,0.795 -0.987,1.377 -0.235,0.583 -0.353,1.359 -0.353,2.326 l 0,2.047 c -2.927,0.348 -5.16,1.563 -6.698,3.646 -1.538,2.084 -2.307,4.95 -2.307,8.597 l 0,3.944 c 0,3.969 0.912,7.015 2.735,9.136 1.823,2.121 4.471,3.181 7.945,3.181 3.473,0 6.121,-1.06 7.945,-3.181 C 2.549,7.015 3.46,3.969 3.46,0 l 0,-3.944 z" /></g><g
           transform="translate(35.0948,106.394)"
           id="g54"><path
             id="path56"
             style="fill:#c1eae2;fill-opacity:1;fill-rule:nonzero;stroke:none"
             d="m 0,0 0.434,-0.508 14.888,-8.589 0.667,-0.127 0.585,0.027 L 31.53,-0.556 31.954,0 19.58,7.119 C 17.486,8.147 14.378,8.146 12.285,7.118 L 0,0 Z" /></g><g
           transform="translate(19.0767,64.4801)"
           id="g58"><path
             id="path60"
             style="fill:#a5e0d3;fill-opacity:1;fill-rule:nonzero;stroke:none"
             d="m 0,0 c 0.158,-2.323 1.709,-5.011 3.643,-6.31 l 12.375,-7.121 0.28,0.665 0,17.166 -0.28,0.617 -0.433,0.58 L 0.548,14.275 0.034,14.242 0,0 Z" /></g><g
           transform="translate(82.9828,64.4801)"
           id="g62"><path
             id="path64"
             style="fill:#68bdab;fill-opacity:1;fill-rule:nonzero;stroke:none"
             d="m 0,0 c -0.159,-2.323 -1.71,-5.011 -3.644,-6.31 l -12.29,-7.121 -0.299,0.622 0,17.084 0.299,0.742 0.469,0.55 14.857,8.583 0.643,0.092 L 0,0 Z" /></g><g
           transform="translate(67.0488,106.394)"
           id="g66"><path
             id="path68"
             style="fill:#f14831;fill-opacity:1;fill-rule:nonzero;stroke:none"
             d="m 0,0 -15.965,-9.224 0.164,-0.742 14.794,-8.548 1.007,0.065 0.256,0.78 0,17.053 L 0,0 Z" /></g><g
           transform="translate(79.384,99.2773)"
           id="g70"><path
             id="path72"
             style="fill:#e92023;fill-opacity:1;fill-rule:nonzero;stroke:none"
             d="m 0,0 -12.335,7.117 0,-18.449 0.858,0.14 13.759,7.939 0.214,0.479 C 1.845,-1.645 0.97,-0.65 0,0" /></g><g
           transform="translate(83.0176,78.7217)"
           id="g74"><path
             id="path76"
             style="fill:#c13722;fill-opacity:1;fill-rule:nonzero;stroke:none"
             d="m 0,0 0.017,14.242 c -0.079,1.161 -0.504,2.414 -1.154,3.54 L -15.969,9.224 -15.637,8.648 -0.699,0.019 0,0 Z" /></g><g
           transform="translate(67.0488,87.9455)"
           id="g78"><path
             id="path80"
             style="fill:#a9371e;fill-opacity:1;fill-rule:nonzero;stroke:none"
             d="M 0,0 15.969,-9.224 0,-18.448 l -0.507,0.799 0,16.792 L 0,0 Z" /></g><g
           transform="translate(35.0948,69.4973)"
           id="g82"><path
             id="path84"
             style="fill:#f25257;fill-opacity:1;fill-rule:nonzero;stroke:none"
             d="M 0,0 0.864,0.049 15.497,-8.41 15.989,-9.243 15.594,-9.776 0.614,-18.4 0,-18.448 0,0 Z" /></g><g
           transform="translate(47.4389,43.9275)"
           id="g86"><path
             id="path88"
             style="fill:#f57590;fill-opacity:1;fill-rule:nonzero;stroke:none"
             d="m 0,0 c 1.045,-0.512 2.345,-0.771 3.645,-0.771 l 0.169,0.433 0,16.212 L 3.645,16.327 -12.344,7.122 0,0 Z" /></g><g
           transform="translate(51.0835,60.2541)"
           id="g90"><path
             id="path92"
             style="fill:#f15051;fill-opacity:1;fill-rule:nonzero;stroke:none"
             d="m 0,0 0,-17.097 c 1.3,0 2.596,0.259 3.642,0.772 l 12.323,7.12 -0.317,0.434 L 0.519,-0.049 0,0 Z" /></g><g
           transform="translate(67.0488,69.4973)"
           id="g94"><path
             id="path96"
             style="fill:#ec402c;fill-opacity:1;fill-rule:nonzero;stroke:none"
             d="M 0,0 -0.507,0.341 -15.55,-8.368 -15.965,-9.243 0,-18.448 0,0 Z" /></g><g
           transform="translate(35.0948,87.9454)"
           id="g98"><path
             id="path100"
             style="fill:#f36375;fill-opacity:1;fill-rule:nonzero;stroke:none"
             d="M 0,0 0.594,-0.022 15.614,8.643 15.989,9.224 0,18.449 -0.336,18.064 -0.377,0.786 0,0 Z" /></g><g
           transform="translate(22.763,99.2773)"
           id="g102"><path
             id="path104"
             style="fill:#f25749;fill-opacity:1;fill-rule:nonzero;stroke:none"
             d="m 0,0 12.332,7.117 0,-18.449 -0.845,-0.024 -13.51,7.802 -0.466,0.78 C -1.838,-1.645 -0.97,-0.65 0,0" /></g><g
           transform="translate(20.2743,96.5034)"
           id="g106"><path
             id="path108"
             style="fill:#f14926;fill-opacity:1;fill-rule:nonzero;stroke:none"
             d="m 0,0 c -0.65,-1.126 -1.067,-2.379 -1.146,-3.54 l -0.017,-14.242 1.014,0.075 14.584,8.416 0.386,0.733 L 0,0 Z" /></g><g
           transform="translate(35.0948,87.9454)"
           id="g110"><path
             id="path112"
             style="fill:#ef3844;fill-opacity:1;fill-rule:nonzero;stroke:none"
             d="M 0,0 -15.984,-9.224 0,-18.448 l 0.405,0.674 0,16.792 L 0,0 Z" /></g><g
           transform="translate(51.0835,78.7262)"
           id="g114"><path
             id="path116"
             style="fill:#9b3940;fill-opacity:1;fill-rule:nonzero;stroke:none"
             d="M 0,0 -0.583,0.018 -15.472,8.603 -15.989,9.219 0,18.444 0.219,17.643 0.219,0.518 0,0 Z" /></g><g
           transform="translate(35.0948,87.9454)"
           id="g118"><path
             id="path120"
             style="fill:#b62b22;fill-opacity:1;fill-rule:nonzero;stroke:none"
             d="M 0,0 15.989,-9.219 15.593,-9.795 0.718,-18.357 0,-18.448 0,0 Z" /></g><g
           transform="translate(51.0835,78.7262)"
           id="g122"><path
             id="path124"
             style="fill:#842921;fill-opacity:1;fill-rule:nonzero;stroke:none"
             d="m 0,0 0.323,-0.607 0,-17.249 L 0,-18.472 -15.989,-9.229 0,0 Z" /></g><g
           transform="translate(51.0835,60.2541)"
           id="g126"><path
             id="path128"
             style="fill:#a01f20;fill-opacity:1;fill-rule:nonzero;stroke:none"
             d="M 0,0 15.965,9.243 15.575,9.807 0.823,18.334 0,18.472 0,0 Z" /></g><g
           transform="translate(67.0488,87.9455)"
           id="g130"><path
             id="path132"
             style="fill:#7d2629;fill-opacity:1;fill-rule:nonzero;stroke:none"
             d="M 0,0 -1.142,-0.17 -15.666,-8.557 -15.965,-9.219 0,-18.448 0,0 Z" /></g><g
           transform="translate(51.0835,78.7262)"
           id="g134"><path
             id="path136"
             style="fill:#7c253b;fill-opacity:1;fill-rule:nonzero;stroke:none"
             d="M 0,0 15.965,9.219 0,18.444 0,0 Z" /></g><g
           transform="translate(51.0835,90.2519)"
           id="g138"><path
             id="path140"
             style="fill:#b6e6db;fill-opacity:1;fill-rule:nonzero;stroke:none"
             d="m 0,0 0,0 -9.99,-5.765 0,-11.531 9.99,-5.766 9.985,5.766 0,11.531 L 0,0 Z" /></g><g
           transform="translate(51.0835,78.7262)"
           id="g142"><path
             id="path144"
             style="fill:#a5e0d3;fill-opacity:1;fill-rule:nonzero;stroke:none"
             d="m 0,0 -9.99,5.761 0,-11.531 9.99,-5.767 0.437,0.836 0,10 L 0,0 Z" /></g><g
           transform="translate(51.0835,78.7262)"
           id="g146"><path
             id="path148"
             style="fill:#68bdab;fill-opacity:1;fill-rule:nonzero;stroke:none"
             d="M 0,0 9.985,5.761 9.985,-5.77 0,-11.537 0,0 Z" /></g><g
           transform="translate(285.4954,88.6579)"
           id="g150"><path
             id="path152"
             style="fill:#4f4c4d;fill-opacity:1;fill-rule:nonzero;stroke:none"
             d="m 0,0 0,1.898 c 0,0.224 0.008,0.443 0.025,0.656 l -0.008,0 C -0.028,2.47 -0.073,2.383 -0.118,2.293 -0.163,2.203 -0.207,2.119 -0.252,2.041 l -0.504,-0.814 -0.496,0 -0.487,0.814 C -1.784,2.108 -1.83,2.189 -1.878,2.285 -1.925,2.38 -1.972,2.47 -2.017,2.554 l -0.007,0 c 0.016,-0.213 0.025,-0.432 0.025,-0.656 l 0,-1.898 -0.613,0 0,3.31 0.721,0 0.681,-1.168 c 0.045,-0.067 0.081,-0.129 0.109,-0.185 0.029,-0.056 0.059,-0.123 0.093,-0.201 l 0.008,0 c 0.039,0.078 0.071,0.145 0.097,0.201 0.025,0.056 0.06,0.118 0.105,0.185 l 0.689,1.168 0.73,0 L 0.621,0 0,0 Z m -4.142,2.813 0,-2.813 -0.629,0 0,2.813 -1.008,0 0,0.497 2.637,0 0,-0.497 -1,0 z" /></g><g
           transform="translate(113.7855,42.0427)"
           id="g154"><path
             id="path156"
             style="fill:#4f4c4d;fill-opacity:1;fill-rule:nonzero;stroke:none"
             d="m 0,0 0,-10.739 -1.495,0 0,10.739 -3.72,0 0,1.332 8.935,0 L 3.72,0 0,0 Z" /></g><g
           transform="translate(124.9949,31.3034)"
           id="g158"><path
             id="path160"
             style="fill:#4f4c4d;fill-opacity:1;fill-rule:nonzero;stroke:none"
             d="M 0,0 0,5.653 C 0,6.087 -0.03,6.45 -0.089,6.742 -0.149,7.034 -0.246,7.265 -0.381,7.433 -0.517,7.601 -0.693,7.72 -0.91,7.79 -1.126,7.86 -1.386,7.896 -1.689,7.896 -2.209,7.896 -2.705,7.825 -3.176,7.685 -3.647,7.544 -4.023,7.402 -4.305,7.262 l 0,-7.262 -1.446,0 0,12.574 1.446,0 0,-4.142 c 0.282,0.151 0.674,0.311 1.178,0.479 0.503,0.168 1.08,0.252 1.73,0.252 0.985,0 1.709,-0.282 2.169,-0.845 0.46,-0.563 0.69,-1.435 0.69,-2.616 L 1.462,0 0,0 Z" /></g><g
           transform="translate(134.5784,36.5993)"
           id="g162"><path
             id="path164"
             style="fill:#4f4c4d;fill-opacity:1;fill-rule:nonzero;stroke:none"
             d="M 0,0 C 0,0.271 -0.021,0.559 -0.065,0.861 -0.108,1.165 -0.211,1.446 -0.374,1.706 -0.536,1.966 -0.769,2.18 -1.072,2.348 -1.375,2.516 -1.787,2.6 -2.307,2.6 -2.816,2.6 -3.225,2.516 -3.533,2.348 -3.842,2.18 -4.078,1.966 -4.24,1.706 -4.402,1.446 -4.508,1.165 -4.557,0.861 -4.605,0.559 -4.63,0.271 -4.63,0 l 0,-0.162 4.63,0 L 0,0 Z m -4.646,-1.364 0,-0.179 c 0,-0.39 0.024,-0.75 0.073,-1.08 0.049,-0.331 0.165,-0.618 0.349,-0.861 0.184,-0.245 0.455,-0.434 0.812,-0.569 0.358,-0.135 0.845,-0.203 1.463,-0.203 0.249,0 0.512,0.005 0.787,0.016 0.277,0.011 0.553,0.03 0.829,0.057 0.276,0.027 0.541,0.057 0.796,0.089 0.255,0.032 0.49,0.066 0.707,0.098 l 0,-1.17 c -0.315,-0.087 -0.737,-0.168 -1.267,-0.243 -0.531,-0.076 -1.17,-0.114 -1.917,-0.114 -0.791,0 -1.449,0.089 -1.974,0.268 -0.526,0.179 -0.945,0.446 -1.26,0.804 -0.314,0.357 -0.536,0.805 -0.666,1.341 -0.129,0.536 -0.194,1.167 -0.194,1.892 l 0,0.682 c 0,1.419 0.311,2.508 0.934,3.265 0.622,0.758 1.573,1.138 2.851,1.138 1.321,0 2.291,-0.385 2.908,-1.153 0.618,-0.77 0.926,-1.912 0.926,-3.429 l 0,-0.649 -6.157,0 z" /></g><g
           transform="translate(148.1605,31.2712)"
           id="g166"><path
             id="path168"
             style="fill:#4f4c4d;fill-opacity:1;fill-rule:nonzero;stroke:none"
             d="m 0,0 c -0.206,-0.033 -0.433,-0.062 -0.682,-0.09 -0.25,-0.026 -0.515,-0.051 -0.796,-0.073 -0.282,-0.022 -0.558,-0.032 -0.829,-0.032 -0.693,0 -1.335,0.076 -1.925,0.227 -0.59,0.152 -1.105,0.423 -1.543,0.813 -0.439,0.389 -0.783,0.926 -1.032,1.608 -0.249,0.683 -0.374,1.554 -0.374,2.615 l 0,1.998 c 0,1.062 0.125,1.931 0.374,2.609 0.249,0.677 0.593,1.21 1.032,1.599 0.438,0.391 0.953,0.659 1.543,0.805 0.59,0.147 1.232,0.219 1.925,0.219 0.271,0 0.547,-0.011 0.829,-0.032 0.281,-0.022 0.546,-0.046 0.796,-0.074 0.249,-0.027 0.476,-0.056 0.682,-0.088 0.206,-0.034 0.368,-0.06 0.488,-0.082 l 0,-1.218 c -0.38,0.032 -0.826,0.067 -1.341,0.105 -0.514,0.038 -0.999,0.057 -1.454,0.057 -0.574,0 -1.072,-0.065 -1.494,-0.195 -0.423,-0.13 -0.772,-0.344 -1.048,-0.642 C -5.125,9.831 -5.334,9.434 -5.475,8.936 -5.616,8.437 -5.686,7.814 -5.686,7.066 l 0,-1.998 c 0,-0.747 0.07,-1.37 0.211,-1.868 0.141,-0.498 0.35,-0.899 0.626,-1.202 0.276,-0.304 0.625,-0.519 1.048,-0.649 0.422,-0.131 0.92,-0.196 1.494,-0.196 0.455,0 0.94,0.017 1.454,0.049 0.515,0.032 0.961,0.065 1.341,0.098 l 0,-1.219 C 0.368,0.06 0.206,0.032 0,0" /></g><g
           transform="translate(156.116,36.4206)"
           id="g170"><path
             id="path172"
             style="fill:#4f4c4d;fill-opacity:1;fill-rule:nonzero;stroke:none"
             d="m 0,0 c 0,0.976 -0.187,1.679 -0.561,2.112 -0.373,0.434 -0.972,0.651 -1.794,0.651 -0.813,0 -1.406,-0.217 -1.78,-0.651 C -4.508,1.679 -4.695,0.976 -4.695,0 l 0,-1.299 c 0,-0.975 0.187,-1.68 0.56,-2.112 0.374,-0.434 0.967,-0.651 1.78,-0.651 0.822,0 1.421,0.217 1.794,0.651 C -0.187,-2.979 0,-2.274 0,-1.299 L 0,0 Z m 1.462,-1.299 c 0,-1.311 -0.319,-2.313 -0.958,-3.006 -0.639,-0.693 -1.592,-1.04 -2.859,-1.04 -1.257,0 -2.205,0.347 -2.844,1.04 -0.639,0.693 -0.958,1.695 -0.958,3.006 l 0,1.299 c 0,1.311 0.319,2.313 0.958,3.006 0.639,0.693 1.587,1.04 2.844,1.04 1.267,0 2.22,-0.347 2.859,-1.04 C 1.143,2.313 1.462,1.311 1.462,0 l 0,-1.299 z" /></g><g
           transform="translate(165.388,31.3034)"
           id="g174"><path
             id="path176"
             style="fill:#4f4c4d;fill-opacity:1;fill-rule:nonzero;stroke:none"
             d="M 0,0 0,5.702 C 0,6.104 -0.019,6.444 -0.057,6.726 -0.095,7.008 -0.17,7.237 -0.284,7.416 -0.398,7.595 -0.552,7.723 -0.747,7.798 -0.942,7.874 -1.191,7.912 -1.495,7.912 -1.841,7.912 -2.248,7.844 -2.713,7.709 -3.179,7.573 -3.709,7.376 -4.305,7.116 l 0,-7.116 -1.446,0 0,8.936 1.446,0 0,-0.699 c 0.52,0.271 1.021,0.492 1.503,0.666 0.482,0.173 0.972,0.26 1.47,0.26 0.596,0 1.075,-0.079 1.438,-0.235 C 0.469,8.771 0.75,8.543 0.951,8.245 1.151,7.947 1.286,7.584 1.357,7.156 1.427,6.729 1.462,6.244 1.462,5.702 L 1.462,0 0,0 Z" /></g><g
           transform="translate(173.4227,31.1657)"
           id="g178"><path
             id="path180"
             style="fill:#4f4c4d;fill-opacity:1;fill-rule:nonzero;stroke:none"
             d="m 0,0 c -0.314,-0.06 -0.645,-0.09 -0.991,-0.09 -0.813,0 -1.384,0.168 -1.714,0.504 C -3.036,0.749 -3.2,1.34 -3.2,2.185 l 0,5.669 -1.804,0.13 0,1.089 1.804,0 0,2.323 1.462,0 0,-2.323 2.387,0 0,-1.219 -2.387,0 0,-5.604 c 0,-0.25 0.008,-0.453 0.024,-0.609 0.016,-0.158 0.057,-0.277 0.122,-0.358 0.065,-0.081 0.156,-0.136 0.276,-0.163 0.119,-0.026 0.282,-0.04 0.487,-0.04 0.131,0 0.266,0.003 0.406,0.008 0.141,0.006 0.279,0.011 0.415,0.016 0.135,0.005 0.262,0.014 0.382,0.025 0.118,0.011 0.211,0.021 0.275,0.032 l 0,-1.007 C 0.53,0.11 0.313,0.06 0,0" /></g><g
           transform="translate(180.9783,35.5925)"
           id="g182"><path
             id="path184"
             style="fill:#4f4c4d;fill-opacity:1;fill-rule:nonzero;stroke:none"
             d="m 0,0 -1.332,0 c -0.477,0 -0.88,-0.02 -1.211,-0.057 -0.33,-0.038 -0.603,-0.117 -0.82,-0.235 C -3.58,-0.412 -3.736,-0.579 -3.834,-0.796 -3.932,-1.013 -3.98,-1.3 -3.98,-1.657 l 0,-0.439 c 0,-0.249 0.038,-0.458 0.114,-0.626 0.075,-0.168 0.178,-0.299 0.308,-0.397 0.13,-0.098 0.287,-0.165 0.471,-0.203 0.185,-0.038 0.385,-0.057 0.602,-0.057 0.259,0 0.519,0.026 0.779,0.081 0.26,0.054 0.501,0.116 0.723,0.187 0.222,0.07 0.417,0.146 0.585,0.227 0.168,0.081 0.3,0.155 0.398,0.22 L 0,0 Z m 0.064,-4.289 0,0.601 c -0.27,-0.184 -0.643,-0.369 -1.12,-0.552 -0.477,-0.185 -1.05,-0.277 -1.722,-0.277 -0.845,0 -1.5,0.199 -1.966,0.593 -0.466,0.396 -0.698,1.043 -0.698,1.942 l 0,0.325 c 0,0.585 0.097,1.058 0.292,1.422 0.195,0.362 0.471,0.643 0.829,0.844 0.357,0.201 0.788,0.333 1.291,0.398 0.504,0.065 1.069,0.097 1.698,0.097 l 1.332,0 0,0.651 c 0,0.39 -0.024,0.706 -0.073,0.95 -0.049,0.243 -0.149,0.433 -0.301,0.568 -0.151,0.136 -0.365,0.231 -0.642,0.285 -0.276,0.054 -0.635,0.081 -1.08,0.081 -0.498,0 -0.962,-0.019 -1.389,-0.057 C -3.913,3.544 -4.37,3.498 -4.857,3.444 l 0,1.04 c 0.064,0.022 0.186,0.054 0.365,0.097 0.179,0.044 0.395,0.087 0.649,0.13 0.255,0.044 0.542,0.082 0.862,0.114 0.319,0.032 0.652,0.049 0.999,0.049 0.748,0 1.345,-0.068 1.795,-0.203 C 0.263,4.535 0.609,4.338 0.853,4.078 1.097,3.817 1.259,3.493 1.34,3.103 1.422,2.713 1.462,2.264 1.462,1.755 l 0,-6.044 -1.398,0 z" /></g><path
           id="path186"
           style="fill:#4f4c4d;fill-opacity:1;fill-rule:nonzero;stroke:none"
           d="m 184.778,40.239 1.462,0 0,-8.936 -1.462,0 0,8.936 z m 0,3.639 1.479,0 0,-1.981 -1.479,0 0,1.981 z" /><g
           transform="translate(194.3944,31.3034)"
           id="g188"><path
             id="path190"
             style="fill:#4f4c4d;fill-opacity:1;fill-rule:nonzero;stroke:none"
             d="M 0,0 0,5.702 C 0,6.104 -0.019,6.444 -0.057,6.726 -0.095,7.008 -0.17,7.237 -0.284,7.416 -0.397,7.595 -0.552,7.723 -0.747,7.798 -0.942,7.874 -1.191,7.912 -1.494,7.912 -1.841,7.912 -2.247,7.844 -2.713,7.709 -3.179,7.573 -3.71,7.376 -4.305,7.116 l 0,-7.116 -1.446,0 0,8.936 1.446,0 0,-0.699 c 0.52,0.271 1.021,0.492 1.502,0.666 0.483,0.173 0.973,0.26 1.471,0.26 0.596,0 1.075,-0.079 1.437,-0.235 C 0.469,8.771 0.75,8.543 0.95,8.245 1.151,7.947 1.286,7.584 1.356,7.156 1.427,6.729 1.462,6.244 1.462,5.702 L 1.462,0 0,0 Z" /></g><g
           transform="translate(203.9774,36.5993)"
           id="g192"><path
             id="path194"
             style="fill:#4f4c4d;fill-opacity:1;fill-rule:nonzero;stroke:none"
             d="M 0,0 C 0,0.271 -0.021,0.559 -0.064,0.861 -0.108,1.165 -0.211,1.446 -0.373,1.706 -0.536,1.966 -0.769,2.18 -1.072,2.348 -1.375,2.516 -1.787,2.6 -2.307,2.6 -2.816,2.6 -3.225,2.516 -3.533,2.348 -3.842,2.18 -4.077,1.966 -4.24,1.706 -4.402,1.446 -4.508,1.165 -4.557,0.861 -4.605,0.559 -4.63,0.271 -4.63,0 l 0,-0.162 4.63,0 L 0,0 Z m -4.646,-1.364 0,-0.179 c 0,-0.39 0.024,-0.75 0.073,-1.08 0.049,-0.331 0.165,-0.618 0.349,-0.861 0.184,-0.245 0.455,-0.434 0.813,-0.569 0.357,-0.135 0.845,-0.203 1.462,-0.203 0.249,0 0.512,0.005 0.788,0.016 0.276,0.011 0.552,0.03 0.828,0.057 0.276,0.027 0.542,0.057 0.796,0.089 0.255,0.032 0.49,0.066 0.707,0.098 l 0,-1.17 c -0.315,-0.087 -0.736,-0.168 -1.268,-0.243 -0.53,-0.076 -1.169,-0.114 -1.917,-0.114 -0.79,0 -1.448,0.089 -1.973,0.268 -0.526,0.179 -0.946,0.446 -1.259,0.804 -0.315,0.357 -0.536,0.805 -0.666,1.341 -0.13,0.536 -0.195,1.167 -0.195,1.892 l 0,0.682 c 0,1.419 0.311,2.508 0.934,3.265 0.622,0.758 1.572,1.138 2.851,1.138 1.321,0 2.291,-0.385 2.908,-1.153 0.617,-0.77 0.926,-1.912 0.926,-3.429 l 0,-0.649 -6.157,0 z" /></g><g
           transform="translate(211.1766,39.11)"
           id="g196"><path
             id="path198"
             style="fill:#4f4c4d;fill-opacity:1;fill-rule:nonzero;stroke:none"
             d="m 0,0 c -0.304,-0.038 -0.596,-0.093 -0.878,-0.163 -0.281,-0.07 -0.541,-0.151 -0.779,-0.243 -0.239,-0.093 -0.445,-0.193 -0.617,-0.301 l 0,-7.1 -1.447,0 0,8.936 1.43,0 0,-0.715 c 0.423,0.336 0.901,0.577 1.437,0.723 0.537,0.146 1.119,0.219 1.748,0.219 l 0,-1.299 C 0.601,0.057 0.303,0.037 0,0" /></g><g
           transform="translate(223.9617,38.3376)"
           id="g200"><path
             id="path202"
             style="fill:#4f4c4d;fill-opacity:1;fill-rule:nonzero;stroke:none"
             d="M 0,0 C 0,0.683 -0.082,1.26 -0.244,1.73 -0.406,2.202 -0.653,2.584 -0.983,2.876 -1.313,3.169 -1.723,3.38 -2.21,3.51 -2.697,3.64 -3.266,3.705 -3.916,3.705 l -1.754,0 0,-9.423 1.754,0 c 0.65,0 1.219,0.068 1.706,0.202 0.487,0.136 0.897,0.353 1.227,0.651 0.33,0.298 0.577,0.684 0.739,1.161 C -0.082,-3.228 0,-2.647 0,-1.965 L 0,0 Z m 1.511,-1.965 c 0,-0.769 -0.095,-1.466 -0.284,-2.088 -0.19,-0.623 -0.494,-1.156 -0.911,-1.6 -0.417,-0.445 -0.961,-0.785 -1.632,-1.024 -0.672,-0.238 -1.495,-0.357 -2.47,-0.357 l -3.379,0 0,12.071 3.379,0 c 0.942,0 1.747,-0.119 2.413,-0.357 C -0.707,4.441 -0.16,4.103 0.268,3.664 0.695,3.226 1.01,2.694 1.21,2.072 1.41,1.449 1.511,0.759 1.511,0 l 0,-1.965 z" /></g><g
           transform="translate(232.5516,35.5925)"
           id="g204"><path
             id="path206"
             style="fill:#4f4c4d;fill-opacity:1;fill-rule:nonzero;stroke:none"
             d="m 0,0 -1.332,0 c -0.477,0 -0.88,-0.02 -1.211,-0.057 -0.33,-0.038 -0.603,-0.117 -0.82,-0.235 C -3.58,-0.412 -3.736,-0.579 -3.834,-0.796 -3.932,-1.013 -3.98,-1.3 -3.98,-1.657 l 0,-0.439 c 0,-0.249 0.038,-0.458 0.114,-0.626 0.075,-0.168 0.178,-0.299 0.308,-0.397 0.13,-0.098 0.287,-0.165 0.471,-0.203 0.185,-0.038 0.385,-0.057 0.602,-0.057 0.259,0 0.519,0.026 0.779,0.081 0.26,0.054 0.501,0.116 0.723,0.187 0.222,0.07 0.417,0.146 0.585,0.227 0.168,0.081 0.3,0.155 0.398,0.22 L 0,0 Z m 0.064,-4.289 0,0.601 c -0.27,-0.184 -0.643,-0.369 -1.12,-0.552 -0.477,-0.185 -1.05,-0.277 -1.722,-0.277 -0.845,0 -1.5,0.199 -1.966,0.593 -0.466,0.396 -0.698,1.043 -0.698,1.942 l 0,0.325 c 0,0.585 0.097,1.058 0.292,1.422 0.195,0.362 0.471,0.643 0.829,0.844 0.357,0.201 0.788,0.333 1.291,0.398 0.504,0.065 1.069,0.097 1.698,0.097 l 1.332,0 0,0.651 c 0,0.39 -0.024,0.706 -0.073,0.95 -0.049,0.243 -0.149,0.433 -0.301,0.568 -0.151,0.136 -0.365,0.231 -0.642,0.285 -0.276,0.054 -0.635,0.081 -1.08,0.081 -0.498,0 -0.962,-0.019 -1.389,-0.057 C -3.913,3.544 -4.37,3.498 -4.857,3.444 l 0,1.04 c 0.064,0.022 0.186,0.054 0.365,0.097 0.179,0.044 0.395,0.087 0.649,0.13 0.255,0.044 0.542,0.082 0.862,0.114 0.319,0.032 0.652,0.049 0.999,0.049 0.748,0 1.345,-0.068 1.795,-0.203 C 0.263,4.535 0.609,4.338 0.853,4.078 1.097,3.817 1.259,3.493 1.34,3.103 1.422,2.713 1.462,2.264 1.462,1.755 l 0,-6.044 -1.398,0 z" /></g><g
           transform="translate(240.5614,31.1657)"
           id="g208"><path
             id="path210"
             style="fill:#4f4c4d;fill-opacity:1;fill-rule:nonzero;stroke:none"
             d="m 0,0 c -0.314,-0.06 -0.645,-0.09 -0.991,-0.09 -0.813,0 -1.384,0.168 -1.714,0.504 C -3.036,0.749 -3.2,1.34 -3.2,2.185 l 0,5.669 -1.804,0.13 0,1.089 1.804,0 0,2.323 1.462,0 0,-2.323 2.387,0 0,-1.219 -2.387,0 0,-5.604 c 0,-0.25 0.008,-0.453 0.024,-0.609 0.016,-0.158 0.057,-0.277 0.122,-0.358 0.065,-0.081 0.156,-0.136 0.276,-0.163 0.119,-0.026 0.282,-0.04 0.487,-0.04 0.131,0 0.266,0.003 0.406,0.008 0.141,0.006 0.279,0.011 0.415,0.016 0.135,0.005 0.262,0.014 0.382,0.025 0.118,0.011 0.211,0.021 0.275,0.032 l 0,-1.007 C 0.53,0.11 0.313,0.06 0,0" /></g><g
           transform="translate(248.117,35.5925)"
           id="g212"><path
             id="path214"
             style="fill:#4f4c4d;fill-opacity:1;fill-rule:nonzero;stroke:none"
             d="m 0,0 -1.332,0 c -0.477,0 -0.88,-0.02 -1.211,-0.057 -0.33,-0.038 -0.603,-0.117 -0.82,-0.235 C -3.58,-0.412 -3.736,-0.579 -3.834,-0.796 -3.932,-1.013 -3.98,-1.3 -3.98,-1.657 l 0,-0.439 c 0,-0.249 0.038,-0.458 0.114,-0.626 0.075,-0.168 0.178,-0.299 0.308,-0.397 0.13,-0.098 0.287,-0.165 0.471,-0.203 0.185,-0.038 0.385,-0.057 0.602,-0.057 0.259,0 0.519,0.026 0.779,0.081 0.26,0.054 0.501,0.116 0.723,0.187 0.222,0.07 0.417,0.146 0.585,0.227 0.168,0.081 0.3,0.155 0.398,0.22 L 0,0 Z m 0.064,-4.289 0,0.601 c -0.27,-0.184 -0.643,-0.369 -1.12,-0.552 -0.477,-0.185 -1.05,-0.277 -1.722,-0.277 -0.845,0 -1.5,0.199 -1.966,0.593 -0.466,0.396 -0.698,1.043 -0.698,1.942 l 0,0.325 c 0,0.585 0.097,1.058 0.292,1.422 0.195,0.362 0.471,0.643 0.829,0.844 0.357,0.201 0.788,0.333 1.291,0.398 0.504,0.065 1.069,0.097 1.698,0.097 l 1.332,0 0,0.651 c 0,0.39 -0.024,0.706 -0.073,0.95 -0.049,0.243 -0.149,0.433 -0.301,0.568 -0.151,0.136 -0.365,0.231 -0.642,0.285 -0.276,0.054 -0.635,0.081 -1.08,0.081 -0.498,0 -0.962,-0.019 -1.389,-0.057 C -3.913,3.544 -4.37,3.498 -4.857,3.444 l 0,1.04 c 0.064,0.022 0.186,0.054 0.365,0.097 0.179,0.044 0.395,0.087 0.649,0.13 0.255,0.044 0.542,0.082 0.862,0.114 0.319,0.032 0.652,0.049 0.999,0.049 0.748,0 1.345,-0.068 1.795,-0.203 C 0.263,4.535 0.609,4.338 0.853,4.078 1.097,3.817 1.259,3.493 1.34,3.103 1.422,2.713 1.462,2.264 1.462,1.755 l 0,-6.044 -1.398,0 z" /></g><g
           transform="translate(261.5682,39.6052)"
           id="g216"><path
             id="path218"
             style="fill:#4f4c4d;fill-opacity:1;fill-rule:nonzero;stroke:none"
             d="m 0,0 c 0,0.596 -0.086,1.056 -0.26,1.381 -0.173,0.325 -0.43,0.566 -0.771,0.723 -0.341,0.157 -0.767,0.251 -1.276,0.285 -0.508,0.032 -1.099,0.049 -1.77,0.049 l -0.796,0 0,-4.729 0.487,0 c 0.726,0 1.362,0.017 1.908,0.049 0.547,0.033 1.005,0.122 1.374,0.268 0.368,0.147 0.644,0.373 0.829,0.683 C -0.092,-0.982 0,-0.553 0,0 M 1.512,0 C 1.512,-0.899 1.341,-1.592 1,-2.079 0.658,-2.566 0.198,-2.924 -0.381,-3.151 -0.961,-3.379 -1.638,-3.512 -2.412,-3.55 -3.187,-3.588 -4.007,-3.606 -4.873,-3.606 l 0,-4.696 -1.495,0 0,12.072 c 0.389,0 0.777,10e-4 1.162,0.007 0.384,0.006 0.766,0.008 1.144,0.008 0.759,0 1.476,-0.026 2.154,-0.081 C -1.231,3.65 -0.642,3.498 -0.138,3.249 0.366,3 0.767,2.621 1.064,2.112 1.362,1.603 1.512,0.899 1.512,0" /></g><g
           transform="translate(270.5945,36.5993)"
           id="g220"><path
             id="path222"
             style="fill:#4f4c4d;fill-opacity:1;fill-rule:nonzero;stroke:none"
             d="M 0,0 C 0,0.271 -0.021,0.559 -0.064,0.861 -0.108,1.165 -0.211,1.446 -0.373,1.706 -0.536,1.966 -0.769,2.18 -1.072,2.348 -1.375,2.516 -1.787,2.6 -2.307,2.6 -2.816,2.6 -3.225,2.516 -3.533,2.348 -3.842,2.18 -4.077,1.966 -4.24,1.706 -4.402,1.446 -4.508,1.165 -4.557,0.861 -4.605,0.559 -4.63,0.271 -4.63,0 l 0,-0.162 4.63,0 L 0,0 Z m -4.646,-1.364 0,-0.179 c 0,-0.39 0.024,-0.75 0.073,-1.08 0.049,-0.331 0.165,-0.618 0.349,-0.861 0.184,-0.245 0.455,-0.434 0.813,-0.569 0.357,-0.135 0.845,-0.203 1.462,-0.203 0.249,0 0.512,0.005 0.788,0.016 0.276,0.011 0.552,0.03 0.828,0.057 0.276,0.027 0.542,0.057 0.796,0.089 0.255,0.032 0.49,0.066 0.707,0.098 l 0,-1.17 c -0.315,-0.087 -0.736,-0.168 -1.268,-0.243 -0.53,-0.076 -1.169,-0.114 -1.917,-0.114 -0.79,0 -1.448,0.089 -1.973,0.268 -0.526,0.179 -0.946,0.446 -1.259,0.804 -0.315,0.357 -0.536,0.805 -0.666,1.341 -0.13,0.536 -0.195,1.167 -0.195,1.892 l 0,0.682 c 0,1.419 0.311,2.508 0.934,3.265 0.622,0.758 1.572,1.138 2.851,1.138 1.321,0 2.291,-0.385 2.908,-1.153 0.617,-0.77 0.926,-1.912 0.926,-3.429 l 0,-0.649 -6.157,0 z" /></g><g
           transform="translate(280.0252,36.4206)"
           id="g224"><path
             id="path226"
             style="fill:#4f4c4d;fill-opacity:1;fill-rule:nonzero;stroke:none"
             d="m 0,0 c 0,0.976 -0.187,1.679 -0.561,2.112 -0.373,0.434 -0.971,0.651 -1.794,0.651 -0.813,0 -1.406,-0.217 -1.78,-0.651 C -4.508,1.679 -4.695,0.976 -4.695,0 l 0,-1.299 c 0,-0.975 0.187,-1.68 0.56,-2.112 0.374,-0.434 0.967,-0.651 1.78,-0.651 0.823,0 1.421,0.217 1.794,0.651 C -0.187,-2.979 0,-2.274 0,-1.299 L 0,0 Z m 1.462,-1.299 c 0,-1.311 -0.319,-2.313 -0.958,-3.006 -0.64,-0.693 -1.592,-1.04 -2.859,-1.04 -1.257,0 -2.205,0.347 -2.843,1.04 -0.64,0.693 -0.959,1.695 -0.959,3.006 l 0,1.299 c 0,1.311 0.319,2.313 0.959,3.006 0.638,0.693 1.586,1.04 2.843,1.04 1.267,0 2.219,-0.347 2.859,-1.04 C 1.143,2.313 1.462,1.311 1.462,0 l 0,-1.299 z" /></g><g
           transform="translate(289.3289,36.3073)"
           id="g228"><path
             id="path230"
             style="fill:#4f4c4d;fill-opacity:1;fill-rule:nonzero;stroke:none"
             d="M 0,0 C 0,0.553 -0.043,1.013 -0.13,1.381 -0.216,1.749 -0.344,2.044 -0.512,2.267 -0.68,2.488 -0.888,2.646 -1.137,2.737 -1.386,2.829 -1.679,2.876 -2.014,2.876 -2.188,2.876 -2.358,2.864 -2.525,2.843 -2.694,2.821 -2.867,2.786 -3.046,2.737 -3.225,2.688 -3.419,2.621 -3.631,2.534 -3.842,2.447 -4.077,2.34 -4.337,2.209 l 0,-5.962 c 0.368,-0.076 0.717,-0.136 1.048,-0.179 0.33,-0.043 0.646,-0.065 0.95,-0.065 0.358,0 0.68,0.041 0.967,0.122 0.286,0.081 0.533,0.235 0.739,0.463 0.205,0.227 0.362,0.545 0.471,0.951 C -0.054,-2.056 0,-1.527 0,-0.877 L 0,0 Z m 1.446,-0.877 c 0,-0.867 -0.097,-1.579 -0.292,-2.137 -0.195,-0.557 -0.461,-1.002 -0.797,-1.332 -0.335,-0.331 -0.736,-0.56 -1.202,-0.69 -0.466,-0.13 -0.964,-0.195 -1.494,-0.195 -0.304,0 -0.641,0.024 -1.015,0.073 -0.375,0.049 -0.702,0.111 -0.983,0.186 l 0,-3.444 -1.446,0 0,12.348 1.397,0 0,-0.602 c 0.401,0.282 0.825,0.49 1.276,0.626 0.449,0.135 0.89,0.203 1.324,0.203 0.509,0 0.964,-0.076 1.364,-0.227 C -0.021,3.779 0.317,3.539 0.594,3.209 0.87,2.878 1.081,2.447 1.228,1.917 1.373,1.387 1.446,0.747 1.446,0 l 0,-0.877 z" /></g><path
           id="path232"
           style="fill:#4f4c4d;fill-opacity:1;fill-rule:nonzero;stroke:none"
           d="m 292.902,43.878 1.445,0 0,-12.574 -1.445,0 0,12.574 z" /><g
           transform="translate(302.5662,36.5993)"
           id="g234"><path
             id="path236"
             style="fill:#4f4c4d;fill-opacity:1;fill-rule:nonzero;stroke:none"
             d="M 0,0 C 0,0.271 -0.021,0.559 -0.064,0.861 -0.108,1.165 -0.211,1.446 -0.373,1.706 -0.536,1.966 -0.769,2.18 -1.072,2.348 -1.375,2.516 -1.787,2.6 -2.307,2.6 -2.816,2.6 -3.225,2.516 -3.533,2.348 -3.842,2.18 -4.077,1.966 -4.24,1.706 -4.402,1.446 -4.508,1.165 -4.557,0.861 -4.605,0.559 -4.63,0.271 -4.63,0 l 0,-0.162 4.63,0 L 0,0 Z m -4.646,-1.364 0,-0.179 c 0,-0.39 0.024,-0.75 0.073,-1.08 0.049,-0.331 0.165,-0.618 0.349,-0.861 0.184,-0.245 0.455,-0.434 0.813,-0.569 0.357,-0.135 0.845,-0.203 1.462,-0.203 0.249,0 0.512,0.005 0.788,0.016 0.276,0.011 0.552,0.03 0.828,0.057 0.276,0.027 0.542,0.057 0.796,0.089 0.255,0.032 0.49,0.066 0.707,0.098 l 0,-1.17 c -0.315,-0.087 -0.736,-0.168 -1.268,-0.243 -0.53,-0.076 -1.169,-0.114 -1.917,-0.114 -0.79,0 -1.448,0.089 -1.973,0.268 -0.526,0.179 -0.946,0.446 -1.259,0.804 -0.315,0.357 -0.536,0.805 -0.666,1.341 -0.13,0.536 -0.195,1.167 -0.195,1.892 l 0,0.682 c 0,1.419 0.311,2.508 0.934,3.265 0.622,0.758 1.572,1.138 2.851,1.138 1.321,0 2.291,-0.385 2.908,-1.153 0.617,-0.77 0.926,-1.912 0.926,-3.429 l 0,-0.649 -6.157,0 z" /></g><g
           transform="translate(311.3572,38.4391)"
           id="g238"><path
             id="path240"
             style="fill:#4f4c4d;fill-opacity:1;fill-rule:nonzero;stroke:none"
             d="m 0,0 0,1.899 c 0,0.224 0.009,0.443 0.025,0.656 l -0.007,0 C -0.027,2.471 -0.072,2.384 -0.117,2.294 -0.162,2.204 -0.207,2.12 -0.252,2.042 l -0.504,-0.815 -0.496,0 -0.487,0.815 C -1.784,2.109 -1.83,2.19 -1.878,2.286 -1.926,2.381 -1.972,2.471 -2.017,2.555 l -0.008,0 C -2.009,2.342 -2,2.123 -2,1.899 L -2,0 l -0.613,0 0,3.312 0.722,0 0.681,-1.169 c 0.045,-0.067 0.081,-0.129 0.109,-0.185 0.029,-0.056 0.059,-0.123 0.093,-0.202 l 0.008,0 c 0.039,0.079 0.071,0.146 0.097,0.202 0.025,0.056 0.06,0.118 0.105,0.185 l 0.69,1.169 0.73,0 L 0.622,0 0,0 Z m -4.144,2.815 0,-2.815 -0.629,0 0,2.815 -1.009,0 0,0.497 2.639,0 0,-0.497 -1.001,0 z" /></g></g></g></g></svg>