<?xml version="1.0" encoding="UTF-8" standalone="no"?>
<svg
   xmlns:dc="http://purl.org/dc/elements/1.1/"
   xmlns:cc="http://creativecommons.org/ns#"
   xmlns:rdf="http://www.w3.org/1999/02/22-rdf-syntax-ns#"
   xmlns:svg="http://www.w3.org/2000/svg"
   xmlns="http://www.w3.org/2000/svg"
   viewBox="0 0 359.57333 83.800003"
   height="83.800003"
   width="359.57333"
   xml:space="preserve"
   version="1.1"
   id="svg2"><metadata
     id="metadata8"><rdf:RDF><cc:Work
         rdf:about=""><dc:format>image/svg+xml</dc:format><dc:type
           rdf:resource="http://purl.org/dc/dcmitype/StillImage" /></cc:Work></rdf:RDF></metadata><defs
     id="defs6"><clipPath
       id="clipPath18"
       clipPathUnits="userSpaceOnUse"><path
         id="path20"
         d="M 0,628.523 0,0 l 2696.78,0 0,628.523 -2696.78,0 z" /></clipPath></defs><g
     transform="matrix(1.3333333,0,0,-1.3333333,0,83.8)"
     id="g10"><g
       transform="scale(0.1)"
       id="g12"><g
         id="g14"><g
           clip-path="url(#clipPath18)"
           id="g16"><path
             id="path22"
             style="fill:#3568bb;fill-opacity:1;fill-rule:nonzero;stroke:none"
             d="m 1376.81,291.141 183.27,0 0,54.82 -183.27,0 0,67.519 263.46,0 0,54.821 -324.37,0 0,-312.199 336.05,0 0,54.832 -275.14,0 0,80.207" /><path
             id="path24"
             style="fill:#3568bb;fill-opacity:1;fill-rule:nonzero;stroke:none"
             d="m 834.137,277.93 -74.18,138.289 -74.73,-138.289 148.91,0 z m 133.418,-121.828 -67.059,0 -35.922,67 -209.797,0 -35.922,-67 -67.05,0 170.043,312.207 75.648,0 170.059,-312.207" /><path
             id="path26"
             style="fill:#3568bb;fill-opacity:1;fill-rule:nonzero;stroke:none"
             d="m 1259.91,413.465 -149.27,0 0,-257.367 -60.9,0 0,257.367 -120.373,0 -28.879,54.832 359.422,0 0,-54.832" /><path
             id="path28"
             style="fill:#3568bb;fill-opacity:1;fill-rule:nonzero;stroke:none"
             d="m 2395.34,277.93 -74.18,138.289 -74.73,-138.289 148.91,0 z m 133.42,-121.828 -67.06,0 -35.92,67 -209.8,0 -35.92,-67 -67.05,0 170.04,312.207 75.65,0 170.06,-312.207" /><path
             id="path30"
             style="fill:#3568bb;fill-opacity:1;fill-rule:nonzero;stroke:none"
             d="m 1959.04,325.645 c 36.88,0 55.33,14.23 55.33,42.632 0,30.118 -19.64,45.188 -58.89,45.188 l -178.69,0 0,-87.82 182.25,0 z m 124.37,-169.547 -69.8,0 -81.74,114.726 -155.08,0 0,-114.726 -60.91,0 0,312.199 252.29,0 c 33.17,0 59.57,-8.973 79.2,-26.891 19.62,-17.949 29.43,-41.968 29.43,-72.101 0,-51.778 -25.89,-83.418 -77.67,-94.91 l 84.28,-118.297" /><path
             id="path32"
             style="fill:#f1511b;fill-opacity:1;fill-rule:evenodd;stroke:none"
             d="m 324.863,468.633 -156.84,0 0,-209.039 c 25.364,87.289 81.911,161.238 156.84,209.039" /><path
             id="path34"
             style="fill:#3568bb;fill-opacity:1;fill-rule:nonzero;stroke:none"
             d="m 502.051,425.133 c -31.684,27.461 -73.352,41.679 -124.774,42.91 C 353,452.465 330.699,434.094 310.75,413.441 l 63.891,0 c 33.839,0 60.918,-9.429 81.226,-28.296 20.301,-18.883 30.453,-43.793 30.453,-74.75 0,-28.93 -9.57,-52.731 -28.691,-71.422 -19.109,-18.719 -43.57,-28.059 -73.34,-28.059 l -216.262,0 0,-54.812 212.192,-0.02 c 25.039,0 49.25,4.223 72.601,12.691 21.321,7.782 36.891,17.079 46.7,27.918 34.847,37.571 52.281,76.821 52.281,117.782 0,45 -16.582,81.89 -49.75,110.66" /></g></g></g></g></svg>