<?xml version="1.0" encoding="UTF-8" standalone="no"?>
<!-- Created with Inkscape (http://www.inkscape.org/) -->

<svg
   xmlns:dc="http://purl.org/dc/elements/1.1/"
   xmlns:cc="http://creativecommons.org/ns#"
   xmlns:rdf="http://www.w3.org/1999/02/22-rdf-syntax-ns#"
   xmlns:svg="http://www.w3.org/2000/svg"
   xmlns="http://www.w3.org/2000/svg"
   version="1.1"
   width="218.76852"
   height="77.3498"
   id="svg3826">
  <defs
     id="defs3828" />
  <metadata
     id="metadata3831">
    <rdf:RDF>
      <cc:Work
         rdf:about="">
        <dc:format>image/svg+xml</dc:format>
        <dc:type
           rdf:resource="http://purl.org/dc/dcmitype/StillImage" />
        <dc:title></dc:title>
      </cc:Work>
    </rdf:RDF>
  </metadata>
  <g
     transform="translate(-373.47288,-559.40157)"
     id="layer1">
    <path
       d="m 379.31641,575.81453 47.64004,0.1548 0,14.09 c 0.1552,0.92 -1.045,0.76 -1.225,-0.15 -0.46,-2.3 -4.435,-7.815 -5.20504,-8.275 l -19.92,0 0,17.16 16.69504,0 c 1.23,-0.46 3.18496,-3.825 4.44996,-7.205 0.455,-1.22 1.39004,-0.455 1.375,-0.1452 -0.3048,5.51 -0.23,15.61 -0.15,19.755 0.024,1.545 -0.77,1.995 -1.225,0.615 -0.455,-1.375 -2.76,-6.125 -4.28996,-7.355 l -16.855,0 0,19.61 21.6,0 c 1.225,-0.915 4.39,-7.84 4.75,-9.65 0.1552,-0.765 1.38,-0.765 1.38,-0.1548 l 0,16.24 -33.855,-0.46 c -6.89,0 -8.58,0 -15.165,0.615 -1.08,0.1 -1.055,-1.485 -0.31,-1.84 7.505,-3.52 8.43,-1.535 8.43,-12.255 l 0,-29.26 c 0,-7.965 -2.29004,-7.655 -8.43,-9.96 -0.64,-0.24 -0.3,-1.375 0.31,-1.53"
       id="path3089"
       style="fill:#00478c;fill-opacity:1;fill-rule:nonzero;stroke:none" />
    <path
       d="m 438.60141,575.50453 22.21,0.465 17.005,34.925 17.62,-34.465 c 0,0 13.785,0 15.01504,0 1.225,0 5.98,-0.46 6.73996,-0.615 0.77,-0.1548 0.92,1.38 0.3048,1.685 -0.615,0.3052 -7.97,3.37 -8.72996,4.445 l 4.44,42.585 c 0.615,1.38 8.1,4.54 9.34,4.75 0.925,0.1548 0.64,1.255 0.1552,1.225 -4.74,-0.3052 -26.17,-0.3052 -30.79,0 -0.46,0.028 -2.39504,-0.725 -0.3052,-1.38 2.45004,-0.76 7.355,-2.45 8.425,-4.29 l -3.065,-37.07 -21.14,42.74 -3.52,0 -19.305,-41.82 -3.36996,35.845 c 1.37996,2.755 7.815,3.985 8.57996,4.29 0.76004,0.3052 0.76004,1.445 0.15,1.38 -4.595,-0.46 -21.76,-0.1548 -23.58504,0.1548 -0.92496,0.15 -2.59,-1.015 -0.46496,-1.69 6,-1.895 7.97,-0.15 9.345,-14.09 l 3.68,-30.64 c 0.455,-5.055 -5.965,-5.67 -8.885,-6.74 -0.435,-0.16 -0.925,-1.69 0.15,-1.69"
       id="path3091"
       style="fill:#00478c;fill-opacity:1;fill-rule:nonzero;stroke:none" />
    <path
       d="m 566.71645,589.59953 0.46,-14.095 c -6.29,-0.76 -21.79,-3.31 -34.625,6.13 -13.31,9.795 -16.945,34.84 0.31,46.115 11.485,7.505 32.475,2.295 34.01,1.53 0.61,-0.3048 1.375,-0.765 1.375,-1.38 0,-0.615 0.1548,-13.175 0.1548,-13.785 0,-0.61 -0.91996,-0.46 -1.37996,0.15 -0.455,0.615 -2.81,9.595 -5.055,10.725 -4.94,2.495 -16.685,4.075 -22.825,-8.425 -4.04,-8.23 -4.16,-19.385 1.68,-29.565 6.08,-10.585 17.47,-7.55 18.85,-6.74 2.6,1.53 4.2,4.925 5.36,9.195 0.46,1.68 1.535,1.375 1.685,0.1448"
       id="path3101"
       style="fill:#00478c;fill-opacity:1;fill-rule:nonzero;stroke:none" />
    <path
       d="m 571.01141,568.30953 c 6.425,-5.975 12.1,-3.83 14.085,-1.84 1.99504,1.99 3.305,6.355 -1.37,11.03 -2.305,2.3 -7.055,5.975 -7.055,5.975 0,0 7.51,0 7.355,0 0.76504,-0.1552 2.11004,-2.78 2.60504,-3.525 0.31,-0.455 0.60996,-0.3052 0.60996,0.31 0,0.61 0,7.81 0,7.81 -2.145,-0.1548 -14.855,-0.1548 -16.845,-0.1548 l 0,-2.6 c 3.365,-2.605 6.585,-6.28 9.035,-9.345 2.45,-3.065 2.05,-11.235 -6.585,-6.435 -1.37996,0.765 -2.3,0 -1.835,-1.225"
       id="path3103"
       style="fill:#00478c;fill-opacity:1;fill-rule:nonzero;stroke:none" />
  </g>
</svg>
