<?xml version="1.0" encoding="UTF-8" standalone="no"?>
<!-- Created with Inkscape (http://www.inkscape.org/) -->

<svg
   xmlns:dc="http://purl.org/dc/elements/1.1/"
   xmlns:cc="http://creativecommons.org/ns#"
   xmlns:rdf="http://www.w3.org/1999/02/22-rdf-syntax-ns#"
   xmlns:svg="http://www.w3.org/2000/svg"
   xmlns="http://www.w3.org/2000/svg"
   xmlns:sodipodi="http://sodipodi.sourceforge.net/DTD/sodipodi-0.dtd"
   xmlns:inkscape="http://www.inkscape.org/namespaces/inkscape"
   width="807"
   height="320"
   id="svg2"
   version="1.1">
  <g
     inkscape:label="Layer 1"
     inkscape:groupmode="layer"
     id="layer1"
     transform="translate(28.498132,-372.36218)">
    <path
       style="fill:#127bc9;fill-rule:nonzero;stroke:none"
       id="path1242"
       class="ps07 ps10"
       d="m -28.498132,392.78934 156.944492,0 0,-20.42716 -156.944492,0 z" />
    <path
       style="fill:#127bc9;fill-rule:nonzero;stroke:none"
       id="path1244"
       class="ps07 ps10"
       d="m -28.498132,435.61401 156.944492,0 0,-20.34148 -156.944492,0 z" />
    <path
       style="fill:#127bc9;fill-rule:nonzero;stroke:none"
       id="path1246"
       class="ps07 ps10"
       d="m 16.315957,458.02106 67.306804,0 0,20.42715 -67.306804,0 z" />
    <path
       style="fill:#127bc9;fill-rule:nonzero;stroke:none"
       id="path1248"
       class="ps07 ps10"
       d="m 16.315957,500.85526 67.306804,0 0,20.34148 -67.306804,0 z" />
    <path
       style="fill:#127bc9;fill-rule:nonzero;stroke:none"
       id="path1250"
       class="ps07 ps10"
       d="m 16.315957,543.57523 67.306804,0 0,20.43667 -67.306804,0 z" />
    <path
       style="fill:#127bc9;fill-rule:nonzero;stroke:none"
       id="path1252"
       class="ps07 ps10"
       d="m 16.315957,586.37135 67.306804,0 0,20.5033 -67.306804,0 z" />
    <path
       style="fill:#127bc9;fill-rule:nonzero;stroke:none"
       id="path1254"
       class="ps07 ps10"
       d="m -28.498132,649.62318 156.944492,0 0,-20.42715 -156.944492,0 z" />
    <path
       style="fill:#127bc9;fill-rule:nonzero;stroke:none"
       id="path1256"
       class="ps07 ps10"
       d="m -28.498132,692.35267 156.944492,0 0,-20.34148 -156.944492,0 z" />
    <path
       style="fill:#127bc9;fill-rule:nonzero;stroke:none"
       id="path1266"
       class="ps07"
       d="m 150.77631,415.27253 241.88947,0 c 2.06556,3.68374 6.04438,15.4679 6.96769,20.33197 l -248.85716,0 0,-20.33197" />
    <path
       style="fill:#127bc9;fill-rule:nonzero;stroke:none"
       id="path1268"
       class="ps07"
       d="m 195.70557,458.02106 67.17354,0 0,20.42715 -67.17354,0 z" />
    <path
       style="fill:#127bc9;fill-rule:nonzero;stroke:none"
       id="path1272"
       class="ps07"
       d="m 330.11643,458.02391 71.71396,0 c 0.23797,4.72128 -1.73241,15.8201 -3.05551,20.42716 l -68.65845,0 0,-20.42716" />
    <path
       style="fill:#127bc9;fill-rule:nonzero;stroke:none"
       id="path1276"
       class="ps07"
       d="m 195.70748,543.57904 172.74555,0 c 5.37807,3.73133 14.25903,14.42084 18.62812,20.43667 l -191.37367,0 0,-20.43667" />
    <path
       style="fill:#127bc9;fill-rule:nonzero;stroke:none"
       id="path1278"
       class="ps07"
       d="m 195.70557,586.37135 67.17354,0 0,20.5033 -67.17354,0 z" />
    <path
       style="fill:#127bc9;fill-rule:nonzero;stroke:none"
       id="path1282"
       class="ps07"
       d="m 330.11643,586.36659 68.24915,0 c 1.48492,3.16973 3.67422,16.04855 3.89315,20.49378 l -72.1423,0 0,-20.49378" />
    <path
       style="fill:#127bc9;fill-rule:nonzero;stroke:none"
       id="path1286"
       class="ps07"
       d="m 150.77631,629.19603 248.64775,0 c -0.35219,5.13058 -4.19775,16.56255 -6.28235,20.41763 l -242.3654,0 0,-20.41763" />
    <path
       style="fill:#127bc9;fill-rule:nonzero;stroke:none"
       id="path1290"
       class="ps07"
       d="m 150.77631,672.0188 224.8129,0 c -19.92266,16.70534 -37.51324,20.34149 -68.3729,20.34149 l -156.44,0 0,-20.34149" />
    <path
       style="fill:#127bc9;fill-rule:nonzero;stroke:none"
       id="path1294"
       class="ps07"
       d="m 419.83503,372.37075 128.15992,0 6.7678,20.41763 -134.92772,0 z" />
    <path
       style="fill:#127bc9;fill-rule:nonzero;stroke:none"
       id="path1298"
       class="ps07"
       d="m 419.83503,415.27253 142.3428,0 6.72021,20.33197 -149.06301,0 z" />
    <path
       style="fill:#127bc9;fill-rule:nonzero;stroke:none"
       id="path1302"
       class="ps07"
       d="m 464.62723,458.02391 111.77821,0 6.75829,20.42716 -118.5365,0 z" />
    <path
       style="fill:#127bc9;fill-rule:nonzero;stroke:none"
       id="path1306"
       class="ps07"
       d="m 607.76103,500.85811 125.87542,0 0,20.33197 -67.22113,0 0,-17.96181 -6.18716,17.96181 -59.18734,0 z" />
    <path
       style="fill:#127bc9;fill-rule:nonzero;stroke:none"
       id="path1310"
       class="ps07"
       d="m 597.33233,521.18912 -59.27301,0 -6.16813,-18.02843 0,18.02843 -67.26872,0 0,-20.33196 125.97061,0 z" />
    <path
       style="fill:#127bc9;fill-rule:nonzero;stroke:none"
       id="path1312"
       class="ps07"
       d="m 464.62818,543.57523 67.25921,0 0,20.43667 -67.25921,0 z" />
    <path
       style="fill:#127bc9;fill-rule:nonzero;stroke:none"
       id="path1314"
       class="ps07"
       d="m 464.62818,586.37135 67.25921,0 0,20.5033 -67.25921,0 z" />
    <path
       style="fill:#127bc9;fill-rule:nonzero;stroke:none"
       id="path1316"
       class="ps07"
       d="m 419.83313,629.19603 112.05426,0 0,20.42715 -112.05426,0 z" />
    <path
       style="fill:#127bc9;fill-rule:nonzero;stroke:none"
       id="path1318"
       class="ps07"
       d="m 419.83313,672.02071 112.05426,0 0,20.34148 -112.05426,0 z" />
    <path
       style="fill:#127bc9;fill-rule:nonzero;stroke:none"
       id="path1322"
       class="ps07"
       d="m 650.45149,372.37075 128.00762,0 0,20.41763 -134.86109,0 z" />
    <path
       style="fill:#127bc9;fill-rule:nonzero;stroke:none"
       id="path1326"
       class="ps07"
       d="m 636.21626,415.27253 142.24761,0 0,20.33197 -149.01541,0 z" />
    <path
       style="fill:#127bc9;fill-rule:nonzero;stroke:none"
       id="path1330"
       class="ps07"
       d="m 621.97627,458.02391 111.65447,0 0,20.42716 -118.42227,0 z" />
    <path
       style="fill:#127bc9;fill-rule:nonzero;stroke:none"
       id="path1332"
       class="ps07"
       d="m 666.41532,543.57523 67.22113,0 0,20.43667 -67.22113,0 z" />
    <path
       style="fill:#127bc9;fill-rule:nonzero;stroke:none"
       id="path1334"
       class="ps07"
       d="m 666.41532,586.37135 67.22113,0 0,20.5033 -67.22113,0 z" />
    <path
       style="fill:#127bc9;fill-rule:nonzero;stroke:none"
       id="path1336"
       class="ps07"
       d="m 666.41532,629.19603 112.08281,0 0,20.42715 -112.08281,0 z" />
    <path
       style="fill:#127bc9;fill-rule:nonzero;stroke:none"
       id="path1338"
       class="ps07"
       d="m 666.41532,672.02071 112.08281,0 0,20.34148 -112.08281,0 z" />
    <path
       style="fill:#127bc9;fill-rule:nonzero;stroke:none"
       id="path1342"
       class="ps07"
       d="m 545.64668,543.57904 107.08549,0 -6.9201,20.43667 -93.20721,0 z" />
    <path
       style="fill:#127bc9;fill-rule:nonzero;stroke:none"
       id="path1346"
       class="ps07"
       d="m 560.14653,586.36659 78.07247,0 -6.93914,20.49378 -64.20371,0 z" />
    <path
       style="fill:#127bc9;fill-rule:nonzero;stroke:none"
       id="path1350"
       class="ps07"
       d="m 574.62259,629.19603 49.07847,0 -6.9201,20.41763 -35.19068,0 z" />
    <path
       style="fill:#127bc9;fill-rule:nonzero;stroke:none"
       id="path1354"
       class="ps07"
       d="m 589.1529,672.0188 20.12255,0 -6.98673,20.34149 -6.21572,0 z" />
    <path
       style="fill:#127bc9;fill-rule:nonzero;stroke:none"
       id="path1358"
       class="ps07"
       d="m 195.70748,521.2253 172.74555,0 c 5.60652,-3.88364 15.94384,-14.6493 20.10352,-20.37004 l -192.84907,0 0,20.37004" />
    <path
       style="fill:#127bc9;fill-rule:nonzero;stroke:none"
       id="path1362"
       class="ps07"
       d="m 150.77631,392.79124 224.8129,0 c -19.92266,-16.69582 -37.51324,-20.34148 -68.3729,-20.34148 l -156.44,0 0,20.34148" />
  </g>
</svg>
