<?xml version="1.0" encoding="utf-8"?>
<!-- Generator: Adobe Illustrator 19.0.1, SVG Export Plug-In . SVG Version: 6.00 Build 0)  -->
<svg version="1.1" id="Layer_1" xmlns="http://www.w3.org/2000/svg" xmlns:xlink="http://www.w3.org/1999/xlink" x="0px" y="0px"
	 viewBox="0 0 252 342" style="enable-background:new 0 0 252 342;" xml:space="preserve">
<style type="text/css">
	.st0{fill:#030304;}
</style>
<path class="st0" d="M127.8,132.5l-7.9,8l-7.9-8h-3v1v1v31.9v1.8v0.2h2.5l8.4-11.3l8.4,11.3h2.5v-0.2v-1.8v-31.9v-1v-1H127.8z
	 M128.2,134.9V149l-6.9-7L128.2,134.9z M124.3,147.9l-4.4,5.9l-4.4-5.9l4.4-4.5L124.3,147.9z M118.5,142l-6.9,7v-14.1L118.5,142z
	 M111.6,164.9v-13.1l2.5-2.5l4.6,6.1L111.6,164.9z M125.8,149.3l2.5,2.5v13.1l-7.1-9.5L125.8,149.3z"/>
<g>
	<path class="st0" d="M53.4,196.5h-2.2l-5.7-8.7l-1.6,1.9v6.8h-1.9v-17.4h1.9v8.5h0.1c0.4-0.7,0.9-1.3,1.3-1.9l5.3-6.6h2.3l-6.1,7.4
		L53.4,196.5z"/>
	<path class="st0" d="M63.8,179.1h1.9v17.4h-1.9V179.1z"/>
	<path class="st0" d="M86.6,181.2c-0.5-0.3-1.6-0.8-3.1-0.8c-2.4,0-3.3,1.5-3.3,2.7c0,1.7,1.1,2.6,3.4,3.6c2.8,1.2,4.3,2.6,4.3,5.1
		c0,2.8-2,4.9-5.8,4.9c-1.6,0-3.3-0.5-4.2-1.1l0.5-1.6c0.9,0.6,2.3,1.1,3.8,1.1c2.3,0,3.7-1.3,3.7-3.1c0-1.7-0.9-2.8-3.2-3.7
		c-2.6-1-4.4-2.5-4.4-4.9c0-2.7,2.2-4.6,5.3-4.6c1.6,0,2.9,0.4,3.6,0.8L86.6,181.2z"/>
	<path class="st0" d="M116,196.5h-1.9l-0.4-7.8c-0.1-2.5-0.3-5.7-0.3-7.5h-0.1c-0.6,2-1.3,4.1-2.1,6.5l-3.1,8.7h-1.4l-2.9-8.6
		c-0.8-2.5-1.5-4.7-2-6.7h-0.1c0,2.1-0.2,5-0.3,7.7l-0.5,7.7h-1.8l1.2-17.4h2.3l3.1,8.9c0.7,2.2,1.3,4,1.8,5.8h0.1
		c0.4-1.8,1-3.6,1.8-5.8l3.2-8.9h2.4L116,196.5z"/>
	<path class="st0" d="M140.1,196.5h-2l-1.9-5.6h-6.1l-1.8,5.6h-1.9l5.8-17.4h2.2L140.1,196.5z M135.8,189.3l-1.7-5.2
		c-0.4-1.2-0.7-2.3-0.9-3.3h-0.1c-0.2,1.1-0.5,2.2-0.9,3.2l-1.7,5.2H135.8z"/>
	<path class="st0" d="M161.3,180.7h-5.1v15.8h-1.9v-15.8h-5.1v-1.6h12.2V180.7z"/>
	<path class="st0" d="M171.9,179.1h1.9v17.4h-1.9V179.1z"/>
	<path class="st0" d="M198.3,196c-0.8,0.4-2.4,0.8-4.3,0.8c-4.5,0-8.1-2.9-8.1-8.8c0-5.6,3.5-9.1,8.6-9.1c2.1,0,3.3,0.4,3.8,0.7
		l-0.5,1.6c-0.8-0.4-1.9-0.7-3.3-0.7c-4,0-6.7,2.7-6.7,7.5c0,4.6,2.5,7.3,6.5,7.3c1.3,0,2.6-0.3,3.5-0.7L198.3,196z"/>
</g>
</svg>
