<svg xmlns="http://www.w3.org/2000/svg" version="1.1" id="Layer_1" x="0px" y="0px" width="274.838px" height="87.051px" viewBox="0 0 274.838 87.051" enable-background="new 0 0 274.838 87.051" xml:space="preserve"><g><rect x="21.057" y="19.754" fill="#41BEC1" width="54.136" height="54.136"></rect><path fill="#3D4C6B" d="M76.757 18.075l0.005-0.006L58.008 0.617l-0.004 0.005C57.593 0.239 57.047 0 56.44 0H2.303c-1.272 0-2.302 1.03-2.302 2.302v54.137c0 0.667 0.287 1.259 0.738 1.683l-0.003 0.002 18.753 17.449 0.005-0.005c0.412 0.383 0.958 0.623 1.564 0.623h54.136c1.271 0 2.301-1.028 2.301-2.301V19.754C77.494 19.089 77.208 18.495 76.757 18.075zM58.74 55.441V22.052h14.155v46.555L58.74 55.441zM4.602 54.141V8.073l14.155 12.708v33.36H4.602zM18.757 58.741v9.867L8.152 58.741H18.757zM58.74 17.453V7.584l10.604 9.869H58.74zM54.141 17.453H21.935L7.62 4.601h46.521V17.453zM54.141 22.052v32.089H23.355V22.052H54.141zM23.355 58.741h32.181l13.809 12.852h-45.99V58.741z"></path><path fill="#3D4C6B" d="M109.113 73.89h-13.41V21.743h13.41v20.485h6.706l11.621-20.485h14.155l-14.603 25.7 14.526 26.446h-14.155l-11.545-21.234h-6.706V73.89L109.113 73.89z"></path><path fill="#3D4C6B" d="M154.542 87.051c-2.633 0-5.861-0.249-9.686-0.746V76.62h6.705c1.887 0 3.113-0.521 3.687-1.565 0.571-1.042 0.461-2.506-0.333-4.395l-15.273-36.505h13.782l9.313 25.329 7.822-25.329h13.779l-14.9 40.975c-1.439 3.923-3.301 6.891-5.584 8.9C161.571 86.045 158.464 87.051 154.542 87.051z"></path><path fill="#3D4C6B" d="M206.319 63.583c2.635 0 5.611-0.496 8.941-1.49V34.156h13.036v39.484H216.75l-0.746-3.726c-2.336 1.539-4.729 2.673-7.188 3.391 -2.461 0.718-4.531 1.08-6.221 1.08h-3.354c-3.379 0-6.084-1.018-8.119-3.054 -2.036-2.035-3.057-4.743-3.057-8.121V34.156h13.039v26.819c0 0.747 0.248 1.365 0.744 1.865 0.496 0.493 1.117 0.742 1.861 0.742H206.319z"></path><path fill="#3D4C6B" d="M247.646 73.605V86.27H234.61V34.123h11.55l0.743 3.723c2.334-1.537 4.732-2.668 7.188-3.388 2.457-0.721 4.532-1.08 6.222-1.08h3.354c3.376 0 6.082 1.018 8.119 3.054 2.035 2.038 3.054 4.744 3.054 8.122v17.134c0 3.724-1.056 6.641-3.165 8.751 -2.111 2.114-5.027 3.167-8.752 3.167L247.646 73.605 247.646 73.605zM256.587 44.18c-2.631 0-5.611 0.497-8.941 1.487v17.88h11.18c1.982 0 2.979-0.993 2.979-2.979V46.785c0-0.745-0.25-1.363-0.746-1.863 -0.496-0.493-1.115-0.741-1.861-0.741L256.587 44.18 256.587 44.18z"></path></g></svg>
