<?xml version="1.0" encoding="UTF-8" standalone="no"?>
<svg
   xmlns:dc="http://purl.org/dc/elements/1.1/"
   xmlns:cc="http://creativecommons.org/ns#"
   xmlns:rdf="http://www.w3.org/1999/02/22-rdf-syntax-ns#"
   xmlns:svg="http://www.w3.org/2000/svg"
   xmlns="http://www.w3.org/2000/svg"
   viewBox="0 0 527.40002 64.400002"
   height="64.400002"
   width="527.40002"
   xml:space="preserve"
   version="1.1"
   id="svg2"><metadata
     id="metadata8"><rdf:RDF><cc:Work
         rdf:about=""><dc:format>image/svg+xml</dc:format><dc:type
           rdf:resource="http://purl.org/dc/dcmitype/StillImage" /></cc:Work></rdf:RDF></metadata><defs
     id="defs6"><clipPath
       id="clipPath18"
       clipPathUnits="userSpaceOnUse"><path
         id="path20"
         d="m 0,0 3955.51,0 0,483 L 0,483 0,0 Z" /></clipPath></defs><g
     transform="matrix(1.3333333,0,0,-1.3333333,0,64.4)"
     id="g10"><g
       transform="scale(0.1)"
       id="g12"><g
         id="g14"><g
           clip-path="url(#clipPath18)"
           id="g16"><path
             id="path22"
             style="fill:#254aa5;fill-opacity:1;fill-rule:nonzero;stroke:none"
             d="m 3827.47,65.0195 -18.7,0 c -3.53,0 -6.27,2.8633 -6.27,6.2735 0,3.4101 2.74,6.2695 6.27,6.2695 l 51.15,0 c 3.41,0 6.16,-2.8594 6.16,-6.2695 0,-3.4102 -2.75,-6.2735 -6.16,-6.2735 l -18.81,0 0,-58.30466 C 3841.11,2.97266 3838.03,0 3834.29,0 c -3.74,0 -6.82,2.97266 -6.82,6.71484 l 0,58.30466" /><path
             id="path24"
             style="fill:#254aa5;fill-opacity:1;fill-rule:nonzero;stroke:none"
             d="m 3879.82,71.1797 c 0,3.7422 2.97,6.8242 6.83,6.8242 l 1.43,0 c 2.97,0 4.95,-1.5391 6.27,-3.6328 l 23.32,-36.5234 23.44,36.6328 c 1.42,2.3125 3.4,3.5234 6.15,3.5234 l 1.43,0 c 3.85,0 6.82,-3.082 6.82,-6.8242 l 0,-64.46486 C 3955.51,2.97266 3952.54,0 3948.69,0 c -3.63,0 -6.71,3.08203 -6.71,6.71484 l 0,46.20706 -18.81,-28.2774 c -1.43,-2.1992 -3.19,-3.5234 -5.72,-3.5234 -2.42,0 -4.18,1.3242 -5.61,3.5234 l -18.7,28.0547 0,-46.09764 C 3893.14,2.85938 3890.17,0 3886.43,0 c -3.74,0 -6.61,2.85938 -6.61,6.60156 l 0,64.57814" /><path
             id="path26"
             style="fill:#a3d71d;fill-opacity:1;fill-rule:nonzero;stroke:none"
             d="m 3232.17,4.61328 c -1.94,-1.67187 -4.46,-2.57031 -7.04,-2.57031 l -137.5,0 c -4.35,0 -8.59,2.30078 -10.38,6.26953 -2.07,4.5742 -0.87,9.9023 2.87,12.9883 l 250.92,211.3282 c 5.59,4.711 5.61,13.324 0.03,18.059 l -250.57,212.75 c -3.04,2.582 -4.81,6.55 -4.12,10.48 0.94,5.402 5.59,9.094 10.82,9.094 l 132.32,0 c 2.54,0 5.01,-0.895 7.04,-2.559 l 273.06,-229.699 2.47,-2.109 c 4.2,-3.583 4.31,-10.036 0.24,-13.762 l -2.7,-2.469 L 3232.17,4.61328" /><path
             id="path28"
             style="fill:#254aa5;fill-opacity:1;fill-rule:nonzero;stroke:none"
             d="m 550.965,479.648 -83.891,0 c -10.066,0 -18.301,-8.234 -18.301,-18.3 l 0,-271.184 c 0,-6.375 -7.503,-9.789 -12.312,-5.602 L 125.926,454.91 C 104.75,473.332 81.7383,482.711 57.457,482.711 36.0312,482.711 0,473.965 0,415.441 L 0,23.1133 C 0,13.0078 8.19141,4.8125 18.3008,4.8125 l 83.8472,0 c 10.102,0 18.29,8.1875 18.29,18.2891 l 0,272.3084 c 0,6.387 7.515,9.797 12.324,5.594 L 446.578,26.5664 C 466.031,9.30859 487.18,0.550781 509.445,0.550781 c 22.34,0 59.809,9.140629 59.809,70.347619 l 0,390.4606 c 0,10.063 -8.231,18.289 -18.289,18.289" /><path
             id="path30"
             style="fill:#254aa5;fill-opacity:1;fill-rule:nonzero;stroke:none"
             d="m 1164.7,479.648 -97.52,0 c -5.96,0 -10.86,-4.855 -10.86,-10.855 l 0,-317.586 c 0,-26.164 -32.48,-39.434 -96.59,-39.434 l -132.636,0 c -65.309,0 -98.465,13.27 -98.465,39.434 l 0,317.586 c 0,6 -4.856,10.855 -10.871,10.855 l -98.719,0 c -6.019,0 -10.883,-4.855 -10.883,-10.855 l 0,-322.473 c 0,-22.363 3.782,-41.668 11.145,-57.3825 7.324,-15.5391 17.304,-28.9141 29.699,-39.75 12.133,-10.5742 26.375,-18.9883 42.266,-24.9336 15.406,-5.8281 31.644,-10.2109 48.172,-13.1016 16.453,-2.96871 33.578,-4.75386 50.894,-5.40621 16.863,-0.6289 32.73,-0.93359 47.586,-0.93359 l 107.922,0 c 79.22,0 135.6,10.9609 172.41,33.4648 38.04,23.2813 57.34,59.6055 57.34,108.0427 l 0,322.473 c 0,6 -4.9,10.855 -10.89,10.855" /><path
             id="path32"
             style="fill:#254aa5;fill-opacity:1;fill-rule:nonzero;stroke:none"
             d="m 1734.85,395.844 0,62.504 c 0,12.093 -9.8,21.898 -21.9,21.898 l -476.97,0 c -12.1,0 -21.91,-9.812 -21.91,-21.914 l 0,-62.484 c 0,-12.11 9.81,-21.922 21.92,-21.922 l 166.85,0 c 6.1,0 11.05,-4.946 11.05,-11.047 l 0,-336.1524 c 0,-12.1016 9.81,-21.9141 21.91,-21.9141 l 76.65,0 c 12.11,0 21.93,9.8164 21.93,21.9258 l 0,336.1407 c 0,6.101 4.94,11.047 11.04,11.047 l 167.51,0 c 12.11,0 21.92,9.812 21.92,21.918" /><path
             id="path34"
             style="fill:#254aa5;fill-opacity:1;fill-rule:nonzero;stroke:none"
             d="m 1859.86,243.406 61.1,87.821 c 2.79,4.023 8.74,4.05 11.57,0.05 l 61.83,-87.203 c 2.88,-4.054 -0.02,-9.664 -4.99,-9.664 l -124.81,0 c -4.62,0 -7.34,5.199 -4.7,8.996 z m 134.45,204.117 c -16.43,22.946 -38.18,34.586 -64.65,34.586 -26.11,0 -47.65,-11.867 -64.12,-35.347 L 1571.32,21.9102 c -2.81,-4.0352 -2.61,-9.5352 0.79,-13.41411 2.21,-2.51171 5.58,-3.68359 8.92,-3.68359 l 115.66,0 c 3.68,0 7.14,1.87891 9.14,4.97656 l 73.89,113.67594 c 1.62,2.488 4.38,3.992 7.35,3.992 0,0 246.35,0.055 283.64,0.012 2.96,-0.004 5.69,-1.489 7.32,-3.953 L 2153.59,9.69141 c 2,-3.04297 5.41,-4.87891 9.06,-4.87891 l 111,0 c 3.99,0 7.7,2.22266 9.57,5.8047 1.9,3.5586 1.67,7.8516 -0.58,11.1758 l -288.33,425.73" /><path
             id="path36"
             style="fill:#254aa5;fill-opacity:1;fill-rule:nonzero;stroke:none"
             d="m 2862.24,479.648 -86.21,0 c -9.45,0 -17.12,-7.668 -17.12,-17.125 l 0,-274.91 c 0,-5.379 -6.33,-8.261 -10.39,-4.726 L 2436.07,454.91 c -21.16,18.422 -44.21,27.801 -68.52,27.801 -21.43,0 -57.44,-8.746 -57.44,-67.27 l 0,-393.4918 c 0,-9.4258 7.71,-17.1367 17.14,-17.1367 l 86.18,0 c 9.47,0 17.15,7.6797 17.15,17.1484 l 0,276.0121 c 0,5.386 6.34,8.261 10.4,4.718 L 2756.72,26.5664 c 19.43,-17.25781 40.6,-26.015619 62.87,-26.015619 22.32,0 59.8,9.140629 59.8,70.347619 l 0,391.6016 c 0,9.473 -7.68,17.148 -17.15,17.148" /><path
             id="path38"
             style="fill:#254aa5;fill-opacity:1;fill-rule:nonzero;stroke:none"
             d="m 3027.34,479.648 -98.68,0 c -6.01,0 -10.87,-4.855 -10.87,-10.855 l 0,-453.1133 c 0,-5.98829 4.86,-10.8672 10.87,-10.8672 l 98.68,0 c 6,0 10.89,4.87891 10.89,10.8672 l 0,453.1133 c 0,6 -4.89,10.855 -10.89,10.855" /><path
             id="path40"
             style="fill:#254aa5;fill-opacity:1;fill-rule:nonzero;stroke:none"
             d="m 3541.78,281.426 c 4.38,-3.731 10.83,-3.735 15.21,-0.008 l 219.02,182.016 c 3.04,2.586 4.8,6.55 4.12,10.484 -0.94,5.402 -5.59,9.098 -10.82,9.098 l -132.32,0 c -2.54,0 -5.01,-0.899 -7.04,-2.563 L 3476.26,355.16 c -5.56,-4.676 -5.58,-13.226 -0.05,-17.933 l 65.57,-55.801" /><path
             id="path42"
             style="fill:#254aa5;fill-opacity:1;fill-rule:nonzero;stroke:none"
             d="m 3541.04,201.848 c 4.39,3.73 10.83,3.734 15.22,0.007 L 3778.54,20.3125 c 3.04,-2.582 4.8,-6.5508 4.12,-10.48047 -0.94,-5.40234 -5.59,-9.097655 -10.82,-9.097655 l -132.33,0 c -2.54,0 -5,0.898435 -7.03,2.562505 L 3479.75,130.465 c -5.56,4.676 -5.58,13.226 -0.05,17.933 l 61.34,53.45" /></g></g></g></g></svg>