<?xml version="1.0" encoding="utf-8"?>
<!-- Generator: Adobe Illustrator 16.0.0, SVG Export Plug-In . SVG Version: 6.00 Build 0)  -->
<!DOCTYPE svg PUBLIC "-//W3C//DTD SVG 1.1//EN" "http://www.w3.org/Graphics/SVG/1.1/DTD/svg11.dtd">
<svg version="1.1" id="Horizontal" xmlns="http://www.w3.org/2000/svg" xmlns:xlink="http://www.w3.org/1999/xlink" x="0px" y="0px"
	 width="288px" height="288px" viewBox="0 0 288 288" enable-background="new 0 0 288 288" xml:space="preserve">
<g>
	<g>
		<path fill="#1F355E" d="M57.432,143.754h-6.75v10.22h6.378c10.822,0,19.663-5.355,20.943-15.704H66.174
			C65.169,141.503,62.083,143.754,57.432,143.754z"/>
		<path fill="#1F355E" d="M66.166,133.065h11.863c-1.06-9.351-8.357-15.641-19.851-15.641h-7.497v10.368h6.527
			C61.878,127.792,65.118,129.617,66.166,133.065z"/>
	</g>
	<rect x="34.875" y="117.425" fill="#E67E3C" width="10.345" height="10.345"/>
	<rect x="34.875" y="143.748" fill="#E67E3C" width="10.345" height="10.219"/>
	<rect x="34.875" y="159.189" fill="#916C95" width="10.345" height="10.22"/>
	<rect x="34.875" y="133.286" fill="#BAD8EB" width="10.345" height="4.946"/>
	<g>
		<g>
			<path fill="#1F355E" d="M90.231,169.323c-1.279,0-2.502-0.143-3.669-0.426s-2.252-0.687-3.252-1.209
				c-1.001-0.522-1.912-1.156-2.735-1.901c-0.823-0.745-1.523-1.584-2.102-2.519c-0.578-0.934-1.025-1.949-1.342-3.043
				c-0.317-1.096-0.475-2.255-0.475-3.479c0-1.201,0.158-2.337,0.475-3.41s0.765-2.061,1.342-2.96
				c0.578-0.901,1.279-1.716,2.102-2.444c0.823-0.728,1.734-1.342,2.735-1.843c1-0.5,2.085-0.887,3.252-1.159
				s2.39-0.408,3.669-0.408c1.278,0,2.501,0.136,3.669,0.408s2.251,0.661,3.252,1.168c1,0.506,1.912,1.119,2.735,1.842
				c0.823,0.724,1.523,1.535,2.102,2.437c0.578,0.899,1.026,1.884,1.343,2.952c0.317,1.067,0.476,2.195,0.476,3.385
				c0,1.257-0.159,2.44-0.476,3.553s-0.765,2.135-1.343,3.069c-0.578,0.934-1.279,1.771-2.102,2.509
				c-0.823,0.74-1.734,1.368-2.735,1.885c-1.001,0.518-2.085,0.912-3.252,1.185S91.509,169.323,90.231,169.323z M90.231,167.305
				c1.156,0,2.176-0.264,3.061-0.792c0.883-0.528,1.625-1.263,2.226-2.202c0.601-0.938,1.054-2.053,1.359-3.344
				c0.306-1.29,0.459-2.696,0.459-4.22c0-1.501-0.153-2.877-0.459-4.127c-0.306-1.252-0.759-2.327-1.359-3.228
				c-0.601-0.901-1.343-1.602-2.226-2.102c-0.884-0.5-1.904-0.751-3.061-0.751c-1.167,0-2.196,0.251-3.086,0.751
				s-1.632,1.2-2.227,2.102c-0.595,0.9-1.045,1.976-1.351,3.228c-0.306,1.25-0.458,2.626-0.458,4.127c0,1.523,0.153,2.93,0.458,4.22
				c0.306,1.291,0.756,2.405,1.351,3.344c0.595,0.939,1.337,1.674,2.227,2.202S89.063,167.305,90.231,167.305z"/>
		</g>
		<g>
			<path fill="#1F355E" d="M106.358,145.039h5.821v21.314h12.125v2.436h-17.946V145.039z"/>
		</g>
		<g>
			<path fill="#1F355E" d="M125.017,145.039l7.822,10.691l7.322-10.691h3.937l-9.257,13.477v10.273h-5.838v-9.924l-10.09-13.826
				H125.017z"/>
		</g>
		<g>
			<path fill="#1F355E" d="M151.475,145.039l7.854,16.412l7.272-16.412h3.753l-10.691,24.116h-2.735l-11.475-24.116H151.475z"/>
		</g>
		<g>
			<path fill="#1F355E" d="M189.636,145.039v2.019h-11.909v7.838h9.891v2.036h-9.891v9.422h11.909v2.436h-17.729v-23.75H189.636z"/>
		</g>
		<g>
			<path fill="#1F355E" d="M192.435,145.039h8.923c1.534,0,2.88,0.161,4.036,0.484c1.157,0.322,2.118,0.772,2.887,1.35
				c0.766,0.579,1.342,1.263,1.726,2.053c0.383,0.789,0.574,1.65,0.574,2.585c0,0.667-0.13,1.304-0.391,1.909
				c-0.262,0.606-0.632,1.162-1.109,1.668c-0.479,0.506-1.052,0.956-1.719,1.351c-0.667,0.396-1.406,0.721-2.217,0.976l8.455,11.375
				h-6.32l-7.99-10.758h-1.033v10.758h-5.821V145.039z M198.256,155.98h1.268c0.711,0,1.369-0.101,1.977-0.301
				c0.605-0.2,1.13-0.486,1.575-0.858c0.445-0.373,0.796-0.829,1.051-1.368c0.256-0.539,0.384-1.147,0.384-1.826
				c0-0.623-0.098-1.195-0.291-1.718c-0.195-0.522-0.465-0.976-0.81-1.358c-0.345-0.385-0.754-0.682-1.226-0.893
				c-0.473-0.212-0.992-0.318-1.56-0.318h-2.368V155.98z"/>
		</g>
		<g>
			<path fill="#1F355E" d="M222.314,169.155c-1.423,0-2.668-0.166-3.735-0.499c-1.067-0.334-1.977-0.795-2.728-1.385
				s-1.346-1.29-1.784-2.102c-0.44-0.812-0.743-1.7-0.909-2.669h4.036c0.145,0.59,0.35,1.143,0.617,1.66
				c0.267,0.517,0.605,0.965,1.018,1.343c0.411,0.378,0.9,0.675,1.467,0.892c0.567,0.217,1.224,0.325,1.969,0.325
				c0.5,0,0.992-0.053,1.476-0.158c0.484-0.105,0.917-0.275,1.301-0.509s0.692-0.542,0.926-0.926
				c0.233-0.383,0.351-0.854,0.351-1.409c0-0.711-0.182-1.34-0.543-1.885c-0.36-0.545-0.839-1.042-1.434-1.492
				s-1.273-0.87-2.035-1.26c-0.761-0.389-1.537-0.78-2.326-1.176c-0.789-0.395-1.565-0.806-2.327-1.234
				c-0.761-0.428-1.439-0.909-2.034-1.442c-0.595-0.534-1.073-1.134-1.435-1.802c-0.361-0.666-0.541-1.434-0.541-2.301
				c0-0.945,0.205-1.821,0.616-2.627s1.01-1.504,1.793-2.094c0.783-0.589,1.743-1.051,2.877-1.384c1.134-0.334,2.424-0.5,3.869-0.5
				c1.201,0,2.285,0.166,3.253,0.5c0.967,0.333,1.82,0.787,2.56,1.359c0.74,0.573,1.361,1.248,1.869,2.026
				c0.505,0.778,0.892,1.617,1.158,2.519h-3.669c-0.212-0.567-0.456-1.106-0.733-1.618c-0.279-0.511-0.624-0.962-1.035-1.351
				c-0.41-0.39-0.906-0.698-1.483-0.926c-0.579-0.228-1.273-0.342-2.086-0.342c-0.756,0-1.395,0.101-1.917,0.301
				c-0.523,0.199-0.946,0.452-1.268,0.758c-0.323,0.307-0.554,0.648-0.692,1.026c-0.14,0.378-0.209,0.751-0.209,1.117
				c0,0.634,0.187,1.209,0.559,1.727c0.373,0.517,0.867,0.995,1.484,1.434c0.617,0.44,1.315,0.862,2.094,1.268
				c0.778,0.406,1.575,0.815,2.393,1.226c0.818,0.412,1.618,0.841,2.402,1.285s1.484,0.937,2.102,1.476s1.111,1.137,1.483,1.793
				c0.373,0.656,0.56,1.396,0.56,2.219c0,0.967-0.2,1.864-0.601,2.693c-0.4,0.828-0.992,1.551-1.776,2.168
				c-0.783,0.617-1.757,1.101-2.918,1.451C225.163,168.98,223.826,169.155,222.314,169.155z"/>
		</g>
		<g>
			<path fill="#1F355E" d="M252.144,145.039v2.019h-11.908v7.838h9.89v2.036h-9.89v9.422h11.908v2.436h-17.729v-23.75H252.144z"/>
		</g>
	</g>
</g>
</svg>
