<?xml version="1.0" encoding="UTF-8" standalone="no"?>
<svg
   xmlns:dc="http://purl.org/dc/elements/1.1/"
   xmlns:cc="http://creativecommons.org/ns#"
   xmlns:rdf="http://www.w3.org/1999/02/22-rdf-syntax-ns#"
   xmlns:svg="http://www.w3.org/2000/svg"
   xmlns="http://www.w3.org/2000/svg"
   viewBox="0 0 306.62668 81.133331"
   height="81.133331"
   width="306.62668"
   xml:space="preserve"
   version="1.1"
   id="svg2"><metadata
     id="metadata8"><rdf:RDF><cc:Work
         rdf:about=""><dc:format>image/svg+xml</dc:format><dc:type
           rdf:resource="http://purl.org/dc/dcmitype/StillImage" /></cc:Work></rdf:RDF></metadata><defs
     id="defs6"><clipPath
       id="clipPath18"
       clipPathUnits="userSpaceOnUse"><path
         id="path20"
         d="M 0,608.547 0,0 l 2299.72,0 0,608.547 -2299.72,0 z" /></clipPath></defs><g
     transform="matrix(1.3333333,0,0,-1.3333333,0,81.133333)"
     id="g10"><g
       transform="scale(0.1)"
       id="g12"><g
         id="g14"><g
           clip-path="url(#clipPath18)"
           id="g16"><path
             id="path22"
             style="fill:#f14d3e;fill-opacity:1;fill-rule:nonzero;stroke:none"
             d="M 306.785,608.535 C 138.762,609.934 1.39453,474.824 0.0117188,306.785 -0.582031,236.094 23.0664,170.906 63.0781,118.926 c 15.6524,15.398 26.4453,26.015 28.2344,27.773 8.0508,7.903 29.3245,7.727 29.3245,7.727 0,0 20.879,20.515 42.328,41.648 21.461,21.121 -14.891,58.059 -14.891,58.059 l -50.7498,51.59 C 295.785,501.008 440.742,440.547 440.742,440.547 c 0,0 58.07,-145.938 -140.375,-341.2111 l -50.762,51.6021 c 0,0 -36.339,36.933 -57.789,15.839 -21.484,-21.14 -42.351,-41.66 -42.351,-41.66 0,0 -0.141,-21.277 -8.211,-29.199 C 139.457,94.1484 128.574,83.4375 112.809,67.9219 164.457,26.0156 230.066,0.597656 301.758,0.0117188 469.809,-1.38672 607.148,133.711 608.539,301.758 609.926,469.797 474.848,607.148 306.785,608.535" /><path
             id="path24"
             style="fill:#393536;fill-opacity:1;fill-rule:nonzero;stroke:none"
             d="m 797.793,201.426 c 15.707,0 26.82,1.523 33.34,4.597 6.508,3.071 9.769,8.997 9.769,17.825 0,6.894 -4.218,12.929 -12.648,18.105 -8.43,5.164 -21.262,11.008 -38.512,17.527 -13.418,4.973 -25.578,10.149 -36.5,15.52 -10.918,5.352 -20.219,11.785 -27.883,19.258 -7.656,7.472 -13.597,16.379 -17.804,26.726 -4.219,10.344 -6.332,22.793 -6.332,37.368 0,28.347 10.539,50.769 31.621,67.246 21.066,16.472 50,24.714 86.789,24.714 18.39,0 36.019,-1.628 52.89,-4.882 16.852,-3.262 30.258,-6.809 40.231,-10.633 l -14.949,-66.684 c -9.961,3.457 -20.793,6.516 -32.473,9.203 -11.699,2.672 -24.82,4.024 -39.379,4.024 -26.82,0 -40.23,-7.473 -40.23,-22.414 0,-3.446 0.582,-6.524 1.718,-9.199 1.164,-2.696 3.454,-5.274 6.907,-7.762 3.445,-2.492 8.136,-5.188 14.074,-8.078 5.941,-2.903 13.512,-6.094 22.711,-9.563 18.769,-6.961 34.293,-13.816 46.562,-20.574 12.254,-6.758 21.93,-14.062 29.02,-21.895 7.09,-7.839 12.078,-16.543 14.949,-26.101 2.867,-9.563 4.309,-20.649 4.309,-33.254 0,-29.832 -11.207,-52.395 -33.618,-67.684 -22.421,-15.285 -54.14,-22.941 -95.144,-22.941 -26.82,0 -49.141,2.297 -66.957,6.895 -17.82,4.597 -30.18,8.425 -37.078,11.496 l 14.379,69.558 c 14.558,-5.754 29.496,-10.262 44.828,-13.515 15.32,-3.262 30.461,-4.883 45.41,-4.883" /><path
             id="path26"
             style="fill:#393536;fill-opacity:1;fill-rule:nonzero;stroke:none"
             d="m 1247.28,442.266 c -17.28,-58.25 -35.34,-112.852 -54.17,-163.821 -18.82,-50.965 -39.38,-100.398 -61.66,-148.297 -8.07,-17.238 -16.12,-31.8941 -24.18,-43.9644 -8.06,-12.082 -16.89,-22.0352 -26.48,-29.8945 -9.59,-7.8516 -20.44,-13.6016 -32.52,-17.2461 -12.09,-3.6328 -26.2,-5.4571 -42.31,-5.4571 -13.44,0 -25.819,1.25 -37.144,3.7305 -11.304,2.5 -20.617,5.2734 -27.91,8.3359 l 14.946,68.4027 c 8.828,-3.059 16.675,-5.168 23.578,-6.321 6.898,-1.152 14.187,-1.726 21.86,-1.726 15.34,0 27.12,4.121 35.36,12.359 8.25,8.235 15.24,19.641 21,34.199 -19.56,38.313 -39.12,81.34 -58.67,129.036 -19.55,47.714 -37.949,101.269 -55.203,160.664 l 90.823,0 c 3.85,-14.942 8.37,-31.133 13.57,-48.575 5.19,-17.429 10.68,-35.058 16.46,-52.871 5.76,-17.824 11.64,-35.168 17.6,-52.019 5.96,-16.867 11.65,-32.199 17.04,-45.989 4.99,13.79 10.19,29.122 15.58,45.989 5.39,16.851 10.68,34.195 15.87,52.019 5.19,17.813 10.2,35.442 15.01,52.871 4.81,17.442 9.13,33.633 12.99,48.575 l 88.56,0" /><path
             id="path28"
             style="fill:#393536;fill-opacity:1;fill-rule:nonzero;stroke:none"
             d="m 1367.98,201.426 c 15.72,0 26.83,1.523 33.34,4.597 6.52,3.071 9.78,8.997 9.78,17.825 0,6.894 -4.22,12.929 -12.65,18.105 -8.44,5.164 -21.27,11.008 -38.51,17.527 -13.42,4.973 -25.58,10.149 -36.51,15.52 -10.92,5.352 -20.21,11.785 -27.87,19.258 -7.65,7.472 -13.6,16.379 -17.81,26.726 -4.22,10.344 -6.33,22.793 -6.33,37.368 0,28.347 10.54,50.769 31.62,67.246 21.07,16.472 50,24.714 86.79,24.714 18.39,0 36.02,-1.628 52.89,-4.882 16.85,-3.262 30.26,-6.809 40.22,-10.633 L 1468,368.113 c -9.96,3.457 -20.8,6.516 -32.48,9.203 -11.68,2.672 -24.81,4.024 -39.37,4.024 -26.82,0 -40.24,-7.473 -40.24,-22.414 0,-3.446 0.59,-6.524 1.72,-9.199 1.17,-2.696 3.46,-5.274 6.91,-7.762 3.44,-2.492 8.13,-5.188 14.09,-8.078 5.94,-2.903 13.49,-6.094 22.69,-9.563 18.77,-6.961 34.3,-13.816 46.57,-20.574 12.26,-6.758 21.93,-14.062 29.03,-21.895 7.08,-7.839 12.07,-16.543 14.94,-26.101 2.86,-9.563 4.31,-20.649 4.31,-33.254 0,-29.832 -11.21,-52.395 -33.62,-67.684 -22.42,-15.285 -54.14,-22.941 -95.14,-22.941 -26.83,0 -49.14,2.297 -66.97,6.895 -17.81,4.597 -30.17,8.425 -37.07,11.496 l 14.38,69.558 c 14.56,-5.754 29.49,-10.262 44.82,-13.515 15.34,-3.262 30.47,-4.883 45.41,-4.883" /><path
             id="path30"
             style="fill:#393536;fill-opacity:1;fill-rule:nonzero;stroke:none"
             d="m 1621.47,293.398 c 0,-26.445 5.94,-47.707 17.82,-63.808 11.87,-16.094 29.49,-24.141 52.87,-24.141 7.67,0 14.76,0.281 21.27,0.86 6.53,0.578 11.88,1.242 16.1,2.011 l 0,155.774 c -5.37,3.457 -12.37,6.328 -20.98,8.621 -8.61,2.305 -17.34,3.445 -26.15,3.445 -40.63,0 -60.93,-27.586 -60.93,-82.762 m 193.71,-143.703 c -7.67,-2.3 -16.47,-4.507 -26.43,-6.609 -9.99,-2.109 -20.42,-3.926 -31.34,-5.457 -10.92,-1.524 -22.04,-2.774 -33.34,-3.742 -11.31,-0.957 -22.13,-1.438 -32.47,-1.438 -24.93,0 -47.14,3.656 -66.68,10.918 -19.53,7.278 -36.04,17.738 -49.44,31.328 -13.41,13.598 -23.66,30.078 -30.75,49.438 -7.1,19.344 -10.63,41.094 -10.63,65.242 0,24.512 3.06,46.641 9.2,66.387 6.12,19.734 14.94,36.504 26.44,50.293 11.49,13.8 25.58,24.336 42.24,31.621 16.67,7.265 35.73,10.929 57.19,10.929 11.88,0 22.52,-1.164 31.91,-3.457 9.38,-2.304 18.88,-5.57 28.45,-9.777 l 0,136.809 85.65,13.789 0,-436.274" /><path
             id="path32"
             style="fill:#393536;fill-opacity:1;fill-rule:nonzero;stroke:none"
             d="m 1969.8,139.922 -85.65,0 0,302.344 85.65,0 0,-302.344 z m 8.05,389.719 c 0,-15.715 -5.1,-28.079 -15.25,-37.075 -10.14,-9.011 -22.13,-13.511 -35.92,-13.511 -13.79,0 -25.78,4.5 -35.92,13.511 -10.16,8.996 -15.24,21.36 -15.24,37.075 0,15.711 5.08,28.066 15.24,37.078 10.14,8.996 22.13,13.508 35.92,13.508 13.79,0 25.78,-4.512 35.92,-13.508 10.15,-9.012 15.25,-21.367 15.25,-37.078" /><path
             id="path34"
             style="fill:#393536;fill-opacity:1;fill-rule:nonzero;stroke:none"
             d="m 2111.76,300.867 c 0,-47.906 19.35,-71.863 58.06,-71.863 8.81,0 17.04,1.164 24.71,3.457 7.66,2.305 14.18,4.98 19.55,8.059 l 0,136.796 c -4.22,0.758 -9.2,1.434 -14.94,2.008 -5.76,0.578 -12.47,0.871 -20.12,0.871 -22.63,0 -39.47,-7.48 -50.59,-22.414 -11.11,-14.949 -16.67,-33.926 -16.67,-56.914 m 187.96,-123.008 c 0,-49.429 -12.55,-86.1207 -37.65,-110.0778 -25.1,-23.9414 -63.89,-35.9257 -116.39,-35.9257 -18.4,0 -36.8,1.6406 -55.19,4.8906 -18.39,3.2539 -35.45,7.5703 -51.16,12.9336 l 14.95,71.8513 c 13.41,-5.371 27.49,-9.578 42.26,-12.644 14.73,-3.067 31.51,-4.602 50.28,-4.602 24.52,0 41.87,5.371 52.02,16.098 10.16,10.73 15.24,24.519 15.24,41.387 l 0,10.918 c -9.2,-4.219 -18.69,-7.383 -28.46,-9.485 -9.77,-2.098 -20.39,-3.164 -31.89,-3.164 -41.78,0 -73.77,12.363 -96,37.078 -22.23,24.719 -33.34,59.289 -33.34,103.75 0,22.219 3.46,42.434 10.34,60.637 6.91,18.203 16.96,33.816 30.19,46.855 13.22,13.02 29.4,23.079 48.56,30.176 19.16,7.078 40.82,10.637 64.96,10.637 10.34,0 20.99,-0.488 31.91,-1.438 10.91,-0.964 21.73,-2.214 32.46,-3.742 10.73,-1.531 20.99,-3.355 30.76,-5.457 9.76,-2.109 18.48,-4.316 26.15,-6.621 l 0,-254.055" /></g></g></g></g></svg>