<?xml version="1.0" encoding="UTF-8" standalone="no"?>
<svg
   xmlns:dc="http://purl.org/dc/elements/1.1/"
   xmlns:cc="http://creativecommons.org/ns#"
   xmlns:rdf="http://www.w3.org/1999/02/22-rdf-syntax-ns#"
   xmlns:svg="http://www.w3.org/2000/svg"
   xmlns="http://www.w3.org/2000/svg"
   viewBox="0 0 990.52002 134.29333"
   height="134.29333"
   width="990.52002"
   xml:space="preserve"
   version="1.1"
   id="svg2"><metadata
     id="metadata8"><rdf:RDF><cc:Work
         rdf:about=""><dc:format>image/svg+xml</dc:format><dc:type
           rdf:resource="http://purl.org/dc/dcmitype/StillImage" /></cc:Work></rdf:RDF></metadata><defs
     id="defs6"><clipPath
       id="clipPath18"
       clipPathUnits="userSpaceOnUse"><path
         id="path20"
         d="m 0,0 7428.87,0 0,1007 L 0,1007 0,0 Z" /></clipPath></defs><g
     transform="matrix(1.3333333,0,0,-1.3333333,0,134.29333)"
     id="g10"><g
       transform="scale(0.1)"
       id="g12"><g
         id="g14"><g
           clip-path="url(#clipPath18)"
           id="g16"><path
             id="path22"
             style="fill:#231f20;fill-opacity:1;fill-rule:nonzero;stroke:none"
             d="m 646.816,1007.19 151.805,0 L 447.488,0 351.129,0 0,1007.19 l 151.801,0 248.172,-774.862 246.843,774.862" /><path
             id="path24"
             style="fill:#231f20;fill-opacity:1;fill-rule:nonzero;stroke:none"
             d="m 963.617,401.293 278.523,0 c -1.31,87.125 -14.52,167.645 -122.76,167.645 -113.52,0 -146.525,-72.602 -155.763,-167.645 z m 1.321,-117.488 c 10.558,-91.078 48.842,-158.403 154.442,-158.403 84.48,0 145.2,11.879 227.05,47.524 l 0,-128.0471 C 1261.94,6.60156 1182.74,0 1119.38,0 896.293,0 825.016,138.605 825.016,347.172 c 0,208.562 71.277,347.168 294.364,347.168 231.01,0 262.69,-162.363 262.69,-347.168 l 0,-63.367 -417.132,0" /><path
             id="path26"
             style="fill:#231f20;fill-opacity:1;fill-rule:nonzero;stroke:none"
             d="m 1940.42,549.137 c -33.01,11.883 -71.29,19.801 -97.69,19.801 -69.96,0 -114.84,-14.52 -153.13,-31.684 l 0,-520.0938 -135.96,0 0,660.0198 91.09,0 13.19,-36.961 c 56.77,35.644 120.13,54.121 184.81,54.121 29.04,0 68.64,-3.961 97.69,-10.559 l 0,-134.644" /><path
             id="path28"
             style="fill:#231f20;fill-opacity:1;fill-rule:nonzero;stroke:none"
             d="m 2259.84,0 c -104.28,0 -159.72,42.2422 -159.72,159.723 l 0,517.457 133.33,0 0,-521.414 c 0,-23.762 13.2,-30.364 51.48,-30.364 l 0,-125.402 -25.09,0 z m -92.4,990.027 c 51.49,0 92.4,-40.918 92.4,-92.402 0,-51.48 -40.91,-92.402 -92.4,-92.402 -51.48,0 -92.4,40.922 -92.4,92.402 0,51.484 40.92,92.402 92.4,92.402" /><path
             id="path30"
             style="fill:#231f20;fill-opacity:1;fill-rule:nonzero;stroke:none"
             d="m 2402.39,17.1602 0,88.4418 336.61,446.171 -318.13,0 0,125.407 497.66,0 0,-88.442 -336.61,-446.172 348.49,0 0,-125.4058 -528.02,0" /><path
             id="path32"
             style="fill:#231f20;fill-opacity:1;fill-rule:nonzero;stroke:none"
             d="m 3342.22,568.938 c -141.24,0 -151.8,-96.364 -151.8,-221.766 0,-125.406 10.56,-221.77 151.8,-221.77 138.61,0 151.81,96.364 151.81,221.77 0,125.402 -13.2,221.766 -151.81,221.766 z M 3342.22,0 c -237.61,0 -286.44,141.242 -286.44,347.172 0,205.926 48.83,347.168 286.44,347.168 240.25,0 286.45,-141.242 286.45,-347.168 C 3628.67,141.242 3582.47,0 3342.22,0" /><path
             id="path34"
             style="fill:#231f20;fill-opacity:1;fill-rule:nonzero;stroke:none"
             d="m 4196.25,484.457 c 0,62.039 -46.21,84.481 -106.93,84.481 -65.99,0 -117.48,-14.52 -153.12,-31.684 l 0,-520.0938 -135.96,0 0,660.0198 91.07,0 13.21,-36.961 c 54.12,35.644 121.44,54.121 184.8,54.121 162.36,0 242.89,-79.199 242.89,-212.528 l 0,-464.6518 -135.96,0 0,467.2968" /><path
             id="path36"
             style="fill:#231f20;fill-opacity:1;fill-rule:nonzero;stroke:none"
             d="m 4932.79,149.164 432.97,0 0,-132.0038 -571.58,0 0,990.0298 138.61,0 0,-858.026" /><path
             id="path38"
             style="fill:#231f20;fill-opacity:1;fill-rule:nonzero;stroke:none"
             d="m 5747.21,326.047 c -83.16,-7.918 -106.92,-54.121 -106.92,-100.32 0,-44.879 10.56,-100.325 106.92,-100.325 55.44,0 114.85,19.801 150.49,40.922 l 0,172.926 -150.49,-13.203 z m 29.04,242.891 c -77.88,0 -178.2,-21.122 -225.73,-39.602 l 0,125.402 c 51.49,23.762 163.69,39.602 225.73,39.602 203.29,0 256.09,-92.402 256.09,-229.684 l 0,-447.4958 -91.09,0 -11.87,34.3203 C 5875.26,18.4805 5802.65,0 5744.58,0 c -183.49,0 -240.26,110.883 -240.26,225.727 0,104.281 48.85,196.687 244.21,212.527 l 149.17,11.879 0,13.199 c 0,71.285 -26.41,105.606 -121.45,105.606" /><path
             id="path40"
             style="fill:#231f20;fill-opacity:1;fill-rule:nonzero;stroke:none"
             d="m 6350.43,538.578 0,-381.496 c 38.29,-18.477 84.49,-31.68 149.17,-31.68 129.37,0 149.16,102.965 149.16,221.77 0,120.121 -19.79,221.766 -149.16,221.766 -42.24,0 -73.92,-6.602 -100.32,-13.204 -19.8,-5.277 -35.64,-10.562 -48.85,-17.156 z m -133.32,468.612 133.32,0 0,-348.491 c 52.81,23.762 96.37,35.641 149.17,35.641 223.09,0 286.45,-138.606 286.45,-347.168 C 6786.05,139.926 6722.69,0 6499.6,0 6436.25,0 6378.16,21.1211 6318.75,54.125 l -13.19,-36.9648 -88.45,0 0,990.0298" /><path
             id="path42"
             style="fill:#231f20;fill-opacity:1;fill-rule:nonzero;stroke:none"
             d="M 7192.59,417.133 C 7385.32,398.648 7428.87,332.648 7428.87,216.488 7428.87,110.883 7362.88,0 7158.27,0 7094.91,0 6998.54,17.1602 6949.7,36.9609 l 0,128.0471 c 52.8,-18.481 126.73,-39.606 209.88,-39.606 106.93,0 137.29,44.883 137.29,89.766 0,43.559 -15.84,72.598 -118.8,81.84 -195.37,17.16 -234.97,89.762 -234.97,187.449 0,98.996 62.04,209.883 253.45,209.883 60.72,0 133.32,-7.922 201.96,-38.281 l 0,-125.403 c -64.68,21.117 -125.4,38.282 -203.28,38.282 -101.64,0 -122.76,-36.961 -122.76,-84.481 0,-38.281 19.8,-58.082 120.12,-67.324" /></g></g></g></g></svg>